<?xml version="1.0" encoding="UTF-8"?>
<svg id="Layer_1" xmlns="http://www.w3.org/2000/svg" version="1.1" viewBox="0 0 436.18 151.42">
  <!-- Generator: Adobe Illustrator 30.3.0, SVG Export Plug-In . SVG Version: 2.1.3 Build 182)  -->
  <g>
    <path d="M57.62,111.11H.61v-6.28l6.99-3.04v-52.24l-6.99-3.04v-6.28h34.63v6.28l-7.9,3.04v52.75h18.53l4.35-13.77h6.48l.91,22.58Z" fill="#fff"/>
    <path d="M74.93,105.29c-5.26-4.96-7.9-12.13-7.9-21.52v-34.22l-6.99-3.04v-6.28h34.63v6.28l-7.9,3.04v33.21c0,6.01,1.32,10.6,3.95,13.77,2.63,3.17,6.38,4.76,11.24,4.76,5.33,0,9.43-1.58,12.3-4.76,2.87-3.17,4.3-7.8,4.3-13.87v-33.11l-7.9-3.04v-6.28h24.81v6.28l-6.99,3.04v32.2c0,6.28-1.25,11.74-3.75,16.4-2.5,4.66-6.04,8.25-10.63,10.78-4.59,2.53-9.99,3.8-16.2,3.8-10.06,0-17.72-2.48-22.98-7.44Z" fill="#fff"/>
    <path d="M205.84,79.62c2.29,3.11,3.44,6.62,3.44,10.53,0,4.19-1.18,7.86-3.54,11.04-2.36,3.17-5.79,5.62-10.28,7.34-4.49,1.72-9.84,2.58-16.05,2.58h-36.55v-6.28l6.99-3.04v-52.24l-6.99-3.04v-6.28h34.12c9.99,0,17.26,1.59,21.82,4.76,4.56,3.17,6.83,7.39,6.83,12.66,0,3.11-.86,5.96-2.58,8.56-1.72,2.6-4.1,4.71-7.14,6.33,4.32,1.62,7.63,3.98,9.92,7.09ZM168.99,48.84v21.16h5.97c3.71,0,6.41-.86,8.1-2.58,1.69-1.72,2.53-4.34,2.53-7.85,0-3.31-.91-5.92-2.73-7.85-1.82-1.92-4.32-2.89-7.49-2.89h-6.38ZM177.09,102.5c3.85,0,6.77-1.03,8.76-3.09,1.99-2.06,2.99-5.01,2.99-8.86,0-3.65-1.05-6.63-3.14-8.96-2.09-2.33-4.83-3.49-8.2-3.49h-8.5v24.4h8.1Z" fill="#fff"/>
    <path d="M281.27,79.62c2.29,3.11,3.44,6.62,3.44,10.53,0,4.19-1.18,7.86-3.54,11.04-2.36,3.17-5.79,5.62-10.28,7.34-4.49,1.72-9.84,2.58-16.05,2.58h-36.55v-6.28l6.99-3.04v-52.24l-6.99-3.04v-6.28h34.12c9.99,0,17.26,1.59,21.82,4.76,4.56,3.17,6.83,7.39,6.83,12.66,0,3.11-.86,5.96-2.58,8.56-1.72,2.6-4.1,4.71-7.14,6.33,4.32,1.62,7.63,3.98,9.92,7.09ZM244.42,48.84v21.16h5.97c3.71,0,6.41-.86,8.1-2.58,1.69-1.72,2.53-4.34,2.53-7.85,0-3.31-.91-5.92-2.73-7.85s-4.32-2.89-7.49-2.89h-6.38ZM252.52,102.5c3.85,0,6.77-1.03,8.76-3.09,1.99-2.06,2.99-5.01,2.99-8.86,0-3.65-1.05-6.63-3.14-8.96-2.09-2.33-4.83-3.49-8.2-3.49h-8.5v24.4h8.1Z" fill="#fff"/>
    <path d="M347.49,90.56h6.48l.91,20.55h-61.15v-6.28l6.99-3.04v-52.24l-6.99-3.04v-6.28h59.13l-.91,19.54h-6.48l-4.05-10.73h-20.96v21.26l22.27-1.01v10.23l-22.27-1.01v23.79h22.78l4.25-11.74Z" fill="#fff"/>
    <path d="M387.27,111.11h-24.81v-6.28l6.99-3.04v-52.24l-6.99-3.04v-6.28h20.55l36.25,45.97v-36.65l-7.9-3.04v-6.28h24.81v6.28l-6.99,3.04v61.56h-13.67l-36.15-45.86v36.55l7.9,3.04v6.28Z" fill="#fff"/>
  </g>
  <g opacity=".5">
    <path d="M14.06,151.06h-1.91l-9.59-23.14-2.56-.76v-1.33h9.52v1.33l-3.39.76,7.53,19,7.21-19-3.57-.76v-1.33h8.87v1.33l-2.74.76-9.37,23.14Z" fill="#fff"/>
    <path d="M47.51,144.07h1.48l.22,6.99h-20.51v-1.33l3.1-.79v-21.01l-3.1-.76v-1.33h19.9l-.22,6.63h-1.48l-1.08-4.65h-10.78v9.26l9.95-.36v2.49l-9.95-.36v10.24h11.39l1.08-5.01Z" fill="#fff"/>
    <path d="M67.62,151.06h-9.44v-1.33l3.1-.79v-21.12h-6.16l-1.15,5.37h-1.44l-.22-7.35h21.23l-.25,7.35h-1.44l-1.15-5.37h-6.16v21.12l3.1.79v1.33Z" fill="#fff"/>
    <path d="M95.37,144.07h1.48l.22,6.99h-20.51v-1.33l3.1-.79v-21.01l-3.1-.76v-1.33h19.9l-.22,6.63h-1.48l-1.08-4.65h-10.78v9.26l9.95-.36v2.49l-9.95-.36v10.24h11.39l1.08-5.01Z" fill="#fff"/>
    <path d="M120.89,148.93l3.28.79v1.33h-5.73l-5.91-10.71c-.22.02-.55.04-1.01.04h-4.47v8.54l3.1.79v1.33h-9.44v-1.33l3.1-.79v-21.01l-3.1-.76v-1.33h11.53c3.17,0,5.53.62,7.08,1.87,1.55,1.25,2.32,2.97,2.32,5.16,0,1.61-.52,3.04-1.57,4.31s-2.53,2.17-4.45,2.72l5.26,9.05ZM111.34,138.52c4.66,0,6.99-1.78,6.99-5.33,0-1.61-.56-2.91-1.68-3.89-1.12-.98-2.69-1.48-4.7-1.48h-4.9v10.71h4.29Z" fill="#fff"/>
    <path d="M135.78,151.06h-9.44v-1.33l3.1-.79v-21.01l-3.1-.76v-1.33h9.44v1.33l-3.1.76v21.01l3.1.79v1.33Z" fill="#fff"/>
    <path d="M147.89,151.06h-8.69v-1.33l3.1-.79v-21.01l-3.1-.76v-1.33h5.3l15.54,20.26v-18.17l-3.46-.76v-1.33h8.65v1.33l-3.1.76v23.14h-2.16l-15.54-20.26v18.13l3.46.79v1.33Z" fill="#fff"/>
    <path d="M187.47,144.07h1.48l.22,6.99h-20.51v-1.33l3.1-.79v-21.01l-3.1-.76v-1.33h19.9l-.22,6.63h-1.48l-1.08-4.65h-10.78v9.26l9.95-.36v2.49l-9.95-.36v10.24h11.39l1.08-5.01Z" fill="#fff"/>
    <path d="M206.46,125.83l9.52,23.1,2.56.79v1.33h-9.44v-1.33l3.39-.79-2.05-5.3h-11.46l-2.13,5.3,3.57.79v1.33h-8.87v-1.33l2.74-.79,9.8-23.1h2.38ZM204.73,129.11l-5.05,12.65h9.98l-4.94-12.65Z" fill="#fff"/>
    <path d="M241.25,148.93l3.28.79v1.33h-5.73l-5.91-10.71c-.22.02-.55.04-1.01.04h-4.47v8.54l3.1.79v1.33h-9.44v-1.33l3.1-.79v-21.01l-3.1-.76v-1.33h11.53c3.17,0,5.53.62,7.08,1.87,1.55,1.25,2.33,2.97,2.33,5.16,0,1.61-.52,3.04-1.57,4.31-1.04,1.26-2.53,2.17-4.45,2.72l5.26,9.05ZM231.69,138.52c4.66,0,6.99-1.78,6.99-5.33,0-1.61-.56-2.91-1.68-3.89-1.12-.98-2.69-1.48-4.7-1.48h-4.9v10.71h4.29Z" fill="#fff"/>
    <path d="M261.18,151.06h-9.8v-1.33l3.1-.79v-6.99l-8.15-14.02-2.56-.76v-1.33h9.59v1.33l-3.39.76,6.6,11.93,6.85-11.93-3.57-.76v-1.33h9.05v1.33l-2.74.76-8.43,13.7v7.32l3.46.79v1.33Z" fill="#fff"/>
    <path d="M282.36,150.97c-1.33-.3-2.59-.75-3.77-1.35l.54-6.09h1.44l.83,4.54c1.63.91,3.54,1.37,5.73,1.37,1.85,0,3.27-.42,4.25-1.26.99-.84,1.48-1.95,1.48-3.32,0-1.13-.29-2.04-.86-2.72-.58-.68-1.29-1.21-2.13-1.59-.84-.37-1.98-.78-3.42-1.21-1.61-.48-2.9-.95-3.87-1.41-.97-.46-1.8-1.13-2.49-2.02-.68-.89-1.03-2.07-1.03-3.53,0-1.25.35-2.4,1.06-3.46.71-1.06,1.72-1.9,3.05-2.52,1.32-.62,2.87-.94,4.65-.94,2.74,0,5.21.64,7.42,1.91l-.58,5.73h-1.44l-.83-4.29c-1.42-.91-2.99-1.37-4.72-1.37s-3.09.37-4.02,1.12c-.93.75-1.39,1.71-1.39,2.88,0,1.06.28,1.91.83,2.56.55.65,1.23,1.15,2.04,1.5.8.35,1.92.74,3.33,1.17,1.63.48,2.96.96,3.96,1.42,1.01.47,1.87,1.17,2.58,2.11.71.94,1.06,2.19,1.06,3.75,0,1.35-.37,2.59-1.12,3.73-.75,1.14-1.81,2.05-3.19,2.72-1.38.67-2.99,1.01-4.81,1.01-1.73,0-3.26-.15-4.6-.45Z" fill="#fff"/>
    <path d="M318.81,144.07h1.48l.22,6.99h-20.51v-1.33l3.1-.79v-21.01l-3.1-.76v-1.33h19.9l-.22,6.63h-1.48l-1.08-4.65h-10.78v9.26l9.95-.36v2.49l-9.95-.36v10.24h11.39l1.08-5.01Z" fill="#fff"/>
    <path d="M344.33,148.93l3.28.79v1.33h-5.73l-5.91-10.71c-.22.02-.55.04-1.01.04h-4.47v8.54l3.1.79v1.33h-9.44v-1.33l3.1-.79v-21.01l-3.1-.76v-1.33h11.54c3.17,0,5.53.62,7.08,1.87,1.55,1.25,2.33,2.97,2.33,5.16,0,1.61-.52,3.04-1.57,4.31-1.04,1.26-2.53,2.17-4.45,2.72l5.26,9.05ZM334.78,138.52c4.66,0,6.99-1.78,6.99-5.33,0-1.61-.56-2.91-1.68-3.89-1.12-.98-2.69-1.48-4.7-1.48h-4.9v10.71h4.29Z" fill="#fff"/>
    <path d="M361.28,151.06h-1.91l-9.59-23.14-2.56-.76v-1.33h9.52v1.33l-3.39.76,7.53,19,7.21-19-3.57-.76v-1.33h8.87v1.33l-2.74.76-9.37,23.14Z" fill="#fff"/>
    <path d="M385.35,151.06h-9.44v-1.33l3.1-.79v-21.01l-3.1-.76v-1.33h9.44v1.33l-3.1.76v21.01l3.1.79v1.33Z" fill="#fff"/>
    <path d="M395.46,149.87c-1.98-1.03-3.5-2.49-4.56-4.38-1.06-1.89-1.59-4.09-1.59-6.61s.58-4.91,1.73-6.94c1.15-2.03,2.78-3.62,4.88-4.76,2.1-1.14,4.5-1.71,7.19-1.71,1.66,0,3.23.19,4.7.58,1.48.38,2.73.91,3.77,1.59l-.68,5.91h-1.48l-.83-4.43c-1.66-1.03-3.58-1.55-5.77-1.55-3.12,0-5.59.96-7.39,2.88-1.8,1.92-2.7,4.59-2.7,8,0,2.16.43,4.07,1.28,5.71.85,1.65,2.04,2.91,3.57,3.8s3.27,1.33,5.25,1.33c2.16,0,4.13-.66,5.91-1.98l1.04-5.41h1.48l.68,6.27c-1.25,1.03-2.67,1.83-4.25,2.4s-3.32.85-5.19.85c-2.72,0-5.06-.52-7.05-1.55Z" fill="#fff"/>
    <path d="M434.16,144.07h1.48l.22,6.99h-20.51v-1.33l3.1-.79v-21.01l-3.1-.76v-1.33h19.9l-.22,6.63h-1.48l-1.08-4.65h-10.78v9.26l9.95-.36v2.49l-9.95-.36v10.24h11.39l1.08-5.01Z" fill="#fff"/>
  </g>
  <g opacity=".5">
    <path d="M6.17,28.22c-1.47-.32-2.9-.84-4.29-1.55l.88-6.86h1.99l1.24,4.7c1.65.93,3.53,1.4,5.66,1.4,1.81,0,3.17-.38,4.09-1.16.92-.77,1.38-1.82,1.38-3.15,0-1.12-.29-2.02-.88-2.71-.58-.69-1.31-1.24-2.17-1.63-.86-.4-2.04-.84-3.53-1.32-1.78-.58-3.2-1.14-4.25-1.65-1.05-.52-1.95-1.28-2.69-2.29-.74-1.01-1.12-2.35-1.12-4.03,0-1.41.41-2.72,1.24-3.95.82-1.22,1.99-2.2,3.51-2.93,1.51-.73,3.28-1.1,5.3-1.1,3.16,0,5.95.73,8.37,2.19l-.88,6.46h-1.99l-1.28-4.47c-1.33-.93-2.8-1.4-4.43-1.4-1.7,0-2.98.35-3.85,1.04-.86.69-1.3,1.61-1.3,2.75,0,1.06.28,1.93.84,2.59.56.66,1.26,1.19,2.11,1.57.85.39,2.01.82,3.47,1.3,1.78.56,3.22,1.1,4.31,1.63,1.09.53,2.01,1.32,2.77,2.37.76,1.05,1.14,2.44,1.14,4.17,0,1.52-.43,2.92-1.28,4.23-.85,1.3-2.07,2.34-3.65,3.11-1.58.77-3.4,1.16-5.44,1.16s-3.81-.16-5.28-.48Z" fill="#fff"/>
    <path d="M33.12,26.99c-2.25-1.14-3.96-2.75-5.14-4.82-1.18-2.07-1.77-4.48-1.77-7.22s.66-5.44,1.97-7.71,3.16-4.05,5.54-5.32c2.38-1.28,5.11-1.91,8.19-1.91,1.78,0,3.5.21,5.16.64,1.66.43,3.02,1.01,4.09,1.75l-1.08,6.66h-1.99l-1.28-4.58c-1.62-.98-3.39-1.48-5.3-1.48-3.27,0-5.79.97-7.55,2.91-1.77,1.94-2.65,4.76-2.65,8.45,0,2.26.44,4.25,1.32,5.96.88,1.71,2.09,3.04,3.63,3.99,1.54.94,3.29,1.42,5.26,1.42s3.77-.6,5.34-1.79l1.63-5.86h1.99l1.08,7.06c-1.36,1.17-2.93,2.06-4.72,2.67-1.79.61-3.7.92-5.72.92-3.08,0-5.75-.57-7.99-1.71Z" fill="#fff"/>
    <path d="M61.92,26.99c-2.18-1.14-3.85-2.76-5.02-4.86-1.17-2.1-1.75-4.56-1.75-7.38s.64-5.27,1.91-7.51c1.28-2.25,3.02-4.01,5.22-5.3,2.21-1.29,4.66-1.93,7.38-1.93,2.98,0,5.55.57,7.73,1.71,2.18,1.14,3.85,2.76,5.02,4.86,1.17,2.1,1.75,4.56,1.75,7.38s-.64,5.27-1.91,7.51c-1.28,2.25-3.02,4.01-5.22,5.3-2.21,1.29-4.66,1.93-7.38,1.93-2.98,0-5.56-.57-7.73-1.71ZM74.68,24.38c1.36-.89,2.42-2.19,3.21-3.91.78-1.71,1.18-3.75,1.18-6.12,0-2.23-.43-4.21-1.3-5.94-.86-1.73-2.04-3.06-3.53-4.01-1.49-.94-3.15-1.42-4.98-1.42-1.73,0-3.27.45-4.62,1.34-1.36.89-2.43,2.19-3.21,3.91-.78,1.71-1.18,3.75-1.18,6.12,0,2.23.43,4.21,1.3,5.94.86,1.73,2.04,3.06,3.53,4.01,1.49.94,3.15,1.42,4.98,1.42,1.73,0,3.27-.44,4.62-1.34Z" fill="#fff"/>
    <path d="M104.5,28.3h-11.16v-1.79l3.19-1.2V3.19h-5.66l-1.75,5.46h-1.99l-.36-8.25h24.32l-.36,8.25h-1.99l-1.75-5.46h-5.66v22.13l3.19,1.2v1.79Z" fill="#fff"/>
    <path d="M131.21,28.3h-11.16v-1.79l3.19-1.2V3.19h-5.66l-1.75,5.46h-1.99l-.36-8.25h24.32l-.36,8.25h-1.99l-1.75-5.46h-5.66v22.13l3.19,1.2v1.79Z" fill="#fff"/>
  </g>
</svg>