<?xml version="1.0" encoding="UTF-8"?>
<svg id="Layer_1" xmlns="http://www.w3.org/2000/svg" version="1.1" viewBox="0 0 436.18 153.12">
  <!-- Generator: Adobe Illustrator 30.5.1, SVG Export Plug-In . SVG Version: 2.1.4 Build 3)  -->
  <g>
    <path d="M57.62,111.12H.61v-6.28l6.99-3.04v-52.24l-6.99-3.04v-6.28h34.63v6.28l-7.9,3.04v52.75h18.53l4.35-13.77h6.48l.91,22.58h0Z" fill="#fff"/>
    <path d="M74.93,105.3c-5.26-4.96-7.9-12.13-7.9-21.52v-34.22l-6.99-3.04v-6.28h34.63v6.28l-7.9,3.04v33.21c0,6.01,1.32,10.6,3.95,13.77s6.38,4.76,11.24,4.76c5.33,0,9.43-1.58,12.3-4.76,2.87-3.17,4.3-7.8,4.3-13.87v-33.11l-7.9-3.04v-6.28h24.81v6.28l-6.99,3.04v32.2c0,6.28-1.25,11.74-3.75,16.4-2.5,4.66-6.04,8.25-10.63,10.78-4.59,2.53-9.99,3.8-16.2,3.8-10.06,0-17.72-2.48-22.98-7.44h.01Z" fill="#fff"/>
    <path d="M205.84,79.63c2.29,3.11,3.44,6.62,3.44,10.53,0,4.19-1.18,7.86-3.54,11.04-2.36,3.17-5.79,5.62-10.28,7.34-4.49,1.72-9.84,2.58-16.05,2.58h-36.55v-6.28l6.99-3.04v-52.24l-6.99-3.04v-6.28h34.12c9.99,0,17.26,1.59,21.82,4.76s6.83,7.39,6.83,12.66c0,3.11-.86,5.96-2.58,8.56-1.72,2.6-4.1,4.71-7.14,6.33,4.32,1.62,7.63,3.98,9.92,7.09h.01ZM168.99,48.85v21.16h5.97c3.71,0,6.41-.86,8.1-2.58s2.53-4.34,2.53-7.85c0-3.31-.91-5.92-2.73-7.85-1.82-1.92-4.32-2.89-7.49-2.89h-6.38ZM177.09,102.51c3.85,0,6.77-1.03,8.76-3.09,1.99-2.06,2.99-5.01,2.99-8.86,0-3.65-1.05-6.63-3.14-8.96s-4.83-3.49-8.2-3.49h-8.5v24.4h8.1-.01Z" fill="#fff"/>
    <path d="M281.27,79.63c2.29,3.11,3.44,6.62,3.44,10.53,0,4.19-1.18,7.86-3.54,11.04-2.36,3.17-5.79,5.62-10.28,7.34-4.49,1.72-9.84,2.58-16.05,2.58h-36.55v-6.28l6.99-3.04v-52.24l-6.99-3.04v-6.28h34.12c9.99,0,17.26,1.59,21.82,4.76s6.83,7.39,6.83,12.66c0,3.11-.86,5.96-2.58,8.56-1.72,2.6-4.1,4.71-7.14,6.33,4.32,1.62,7.63,3.98,9.92,7.09h.01ZM244.42,48.85v21.16h5.97c3.71,0,6.41-.86,8.1-2.58s2.53-4.34,2.53-7.85c0-3.31-.91-5.92-2.73-7.85s-4.32-2.89-7.49-2.89h-6.38,0ZM252.52,102.51c3.85,0,6.77-1.03,8.76-3.09s2.99-5.01,2.99-8.86c0-3.65-1.05-6.63-3.14-8.96-2.09-2.33-4.83-3.49-8.2-3.49h-8.5v24.4h8.1,0Z" fill="#fff"/>
    <path d="M347.49,90.57h6.48l.91,20.55h-61.15v-6.28l6.99-3.04v-52.24l-6.99-3.04v-6.28h59.13l-.91,19.54h-6.48l-4.05-10.73h-20.96v21.26l22.27-1.01v10.23l-22.27-1.01v23.79h22.78l4.25-11.74h0Z" fill="#fff"/>
    <path d="M387.27,111.12h-24.81v-6.28l6.99-3.04v-52.24l-6.99-3.04v-6.28h20.55l36.25,45.97v-36.65l-7.9-3.04v-6.28h24.81v6.28l-6.99,3.04v61.56h-13.67l-36.15-45.86v36.55l7.9,3.04v6.28h.01Z" fill="#fff"/>
  </g>
  <g opacity=".5">
    <path d="M14.97,152.74h-2.03l-10.21-24.65-2.73-.81v-1.42h10.14v1.42l-3.61.81,8.02,20.24,7.68-20.24-3.8-.81v-1.42h9.45v1.42l-2.92.81s-9.98,24.65-9.98,24.65Z" fill="#fff"/>
    <path d="M50.6,145.29h1.58l.23,7.44h-21.84v-1.42l3.3-.84v-22.38l-3.3-.81v-1.42h21.19l-.23,7.06h-1.58l-1.15-4.95h-11.48v9.86l10.6-.38v2.65l-10.6-.38v10.91h12.13l1.15-5.34h0Z" fill="#fff"/>
    <path d="M72.02,152.74h-10.05v-1.42l3.3-.84v-22.49h-6.56l-1.22,5.72h-1.53l-.23-7.83h22.61l-.27,7.83h-1.53l-1.22-5.72h-6.56v22.49l3.3.84v1.42h-.02Z" fill="#fff"/>
    <path d="M101.57,145.29h1.58l.23,7.44h-21.84v-1.42l3.3-.84v-22.38l-3.3-.81v-1.42h21.19l-.23,7.06h-1.58l-1.15-4.95h-11.48v9.86l10.6-.38v2.65l-10.6-.38v10.91h12.13l1.15-5.34h0Z" fill="#fff"/>
    <path d="M128.75,150.47l3.49.84v1.42h-6.1l-6.29-11.41c-.23.02-.59.04-1.08.04h-4.76v9.1l3.3.84v1.42h-10.05v-1.42l3.3-.84v-22.38l-3.3-.81v-1.42h12.28c3.38,0,5.89.66,7.54,1.99,1.65,1.33,2.47,3.16,2.47,5.5,0,1.71-.55,3.24-1.67,4.59s-2.69,2.31-4.74,2.9l5.6,9.64h.01ZM118.58,139.38c4.96,0,7.44-1.9,7.44-5.68,0-1.71-.6-3.1-1.79-4.14s-2.86-1.58-5.01-1.58h-5.22v11.41h4.57Z" fill="#fff"/>
    <path d="M144.61,152.74h-10.05v-1.42l3.3-.84v-22.38l-3.3-.81v-1.42h10.05v1.42l-3.3.81v22.38l3.3.84v1.42Z" fill="#fff"/>
    <path d="M157.51,152.74h-9.26v-1.42l3.3-.84v-22.38l-3.3-.81v-1.42h5.64l16.55,21.58v-19.35l-3.69-.81v-1.42h9.21v1.42l-3.3.81v24.65h-2.3l-16.55-21.58v19.31l3.69.84v1.42h0Z" fill="#fff"/>
    <path d="M191.86,125.86l10.14,24.6,2.73.84v1.42h-10.05v-1.42l3.61-.84-2.18-5.64h-12.21l-2.27,5.64,3.8.84v1.42h-9.45v-1.42l2.92-.84,10.44-24.6h2.53-.01ZM190.02,129.36l-5.38,13.47h10.63l-5.26-13.47h.01Z" fill="#fff"/>
    <path d="M228.91,150.47l3.49.84v1.42h-6.1l-6.29-11.41c-.23.02-.59.04-1.08.04h-4.76v9.1l3.3.84v1.42h-10.05v-1.42l3.3-.84v-22.38l-3.3-.81v-1.42h12.28c3.38,0,5.89.66,7.54,1.99,1.65,1.33,2.48,3.16,2.48,5.5,0,1.71-.55,3.24-1.67,4.59-1.11,1.34-2.69,2.31-4.74,2.9l5.6,9.64h0ZM218.73,139.38c4.96,0,7.44-1.9,7.44-5.68,0-1.71-.6-3.1-1.79-4.14s-2.86-1.58-5.01-1.58h-5.22v11.41h4.57,0Z" fill="#fff"/>
    <path d="M250.14,152.74h-10.44v-1.42l3.3-.84v-7.44l-8.68-14.93-2.73-.81v-1.42h10.21v1.42l-3.61.81,7.03,12.71,7.3-12.71-3.8-.81v-1.42h9.64v1.42l-2.92.81-8.98,14.59v7.8l3.69.84v1.42h-.01Z" fill="#fff"/>
    <path d="M272.7,152.64c-1.42-.32-2.76-.8-4.02-1.44l.58-6.49h1.53l.88,4.84c1.74.97,3.77,1.46,6.1,1.46,1.97,0,3.48-.45,4.53-1.34,1.05-.89,1.58-2.08,1.58-3.54,0-1.2-.31-2.17-.92-2.9-.62-.72-1.37-1.29-2.27-1.69-.89-.39-2.11-.83-3.64-1.29-1.71-.51-3.09-1.01-4.12-1.5s-1.92-1.2-2.65-2.15c-.72-.95-1.1-2.2-1.1-3.76,0-1.33.37-2.56,1.13-3.69.76-1.13,1.83-2.02,3.25-2.68,1.41-.66,3.06-1,4.95-1,2.92,0,5.55.68,7.9,2.03l-.62,6.1h-1.53l-.88-4.57c-1.51-.97-3.18-1.46-5.03-1.46s-3.29.39-4.28,1.19-1.48,1.82-1.48,3.07c0,1.13.3,2.03.88,2.73s1.31,1.22,2.17,1.6c.85.37,2.04.79,3.55,1.25,1.74.51,3.15,1.02,4.22,1.51,1.08.5,1.99,1.25,2.75,2.25s1.13,2.33,1.13,3.99c0,1.44-.39,2.76-1.19,3.97s-1.93,2.18-3.4,2.9-3.18,1.08-5.12,1.08-3.47-.16-4.9-.48h.02Z" fill="#fff"/>
    <path d="M311.52,145.29h1.58l.23,7.44h-21.84v-1.42l3.3-.84v-22.38l-3.3-.81v-1.42h21.19l-.23,7.06h-1.58l-1.15-4.95h-11.48v9.86l10.6-.38v2.65l-10.6-.38v10.91h12.13l1.15-5.34h0Z" fill="#fff"/>
    <path d="M338.7,150.47l3.49.84v1.42h-6.1l-6.29-11.41c-.23.02-.59.04-1.08.04h-4.76v9.1l3.3.84v1.42h-10.05v-1.42l3.3-.84v-22.38l-3.3-.81v-1.42h12.29c3.38,0,5.89.66,7.54,1.99,1.65,1.33,2.48,3.16,2.48,5.5,0,1.71-.55,3.24-1.67,4.59-1.11,1.34-2.69,2.31-4.74,2.9l5.6,9.64h-.01ZM328.52,139.38c4.96,0,7.44-1.9,7.44-5.68,0-1.71-.6-3.1-1.79-4.14s-2.86-1.58-5.01-1.58h-5.22v11.41h4.57Z" fill="#fff"/>
    <path d="M356.75,152.74h-2.03l-10.21-24.65-2.73-.81v-1.42h10.14v1.42l-3.61.81,8.02,20.24,7.68-20.24-3.8-.81v-1.42h9.45v1.42l-2.92.81-9.98,24.65h0Z" fill="#fff"/>
    <path d="M382.38,152.74h-10.05v-1.42l3.3-.84v-22.38l-3.3-.81v-1.42h10.05v1.42l-3.3.81v22.38l3.3.84v1.42Z" fill="#fff"/>
    <path d="M393.15,151.47c-2.11-1.1-3.73-2.65-4.86-4.66s-1.69-4.36-1.69-7.04.62-5.23,1.84-7.39c1.22-2.16,2.96-3.86,5.2-5.07,2.24-1.21,4.79-1.82,7.66-1.82,1.77,0,3.44.2,5.01.62,1.58.4,2.91.97,4.02,1.69l-.72,6.29h-1.58l-.88-4.72c-1.77-1.1-3.81-1.65-6.15-1.65-3.32,0-5.95,1.02-7.87,3.07-1.92,2.04-2.88,4.89-2.88,8.52,0,2.3.46,4.33,1.36,6.08.91,1.76,2.17,3.1,3.8,4.05s3.48,1.42,5.59,1.42c2.3,0,4.4-.7,6.29-2.11l1.11-5.76h1.58l.72,6.68c-1.33,1.1-2.84,1.95-4.53,2.56s-3.54.91-5.53.91c-2.9,0-5.39-.55-7.51-1.65h.01Z" fill="#fff"/>
    <path d="M434.37,145.29h1.58l.23,7.44h-21.84v-1.42l3.3-.84v-22.38l-3.3-.81v-1.42h21.19l-.23,7.06h-1.58l-1.15-4.95h-11.48v9.86l10.6-.38v2.65l-10.6-.38v10.91h12.13l1.15-5.34h0Z" fill="#fff"/>
  </g>
  <g opacity=".5">
    <path d="M6.17,28.23c-1.47-.32-2.9-.84-4.29-1.55l.88-6.86h1.99l1.24,4.7c1.65.93,3.53,1.4,5.66,1.4,1.81,0,3.17-.38,4.09-1.16.92-.77,1.38-1.82,1.38-3.15,0-1.12-.29-2.02-.88-2.71-.58-.69-1.31-1.24-2.17-1.63-.86-.4-2.04-.84-3.53-1.32-1.78-.58-3.2-1.14-4.25-1.65-1.05-.52-1.95-1.28-2.69-2.29-.74-1.01-1.12-2.35-1.12-4.03,0-1.41.41-2.72,1.24-3.95.82-1.22,1.99-2.2,3.51-2.93,1.51-.73,3.28-1.1,5.3-1.1,3.16,0,5.95.73,8.37,2.19l-.88,6.46h-1.99l-1.28-4.47c-1.33-.93-2.8-1.4-4.43-1.4s-2.98.35-3.85,1.04c-.86.69-1.3,1.61-1.3,2.75,0,1.06.28,1.93.84,2.59.56.66,1.26,1.19,2.11,1.57.85.39,2.01.82,3.47,1.3,1.78.56,3.22,1.1,4.31,1.63s2.01,1.32,2.77,2.37c.76,1.05,1.14,2.44,1.14,4.17,0,1.52-.43,2.92-1.28,4.23-.85,1.3-2.07,2.34-3.65,3.11s-3.4,1.16-5.44,1.16-3.81-.16-5.28-.48h0Z" fill="#fff"/>
    <path d="M33.12,27c-2.25-1.14-3.96-2.75-5.14-4.82s-1.77-4.48-1.77-7.22.66-5.44,1.97-7.71,3.16-4.05,5.54-5.32C36.1.65,38.83.02,41.91.02c1.78,0,3.5.21,5.16.64,1.66.43,3.02,1.01,4.09,1.75l-1.08,6.66h-1.99l-1.28-4.58c-1.62-.98-3.39-1.48-5.3-1.48-3.27,0-5.79.97-7.55,2.91-1.77,1.94-2.65,4.76-2.65,8.45,0,2.26.44,4.25,1.32,5.96s2.09,3.04,3.63,3.99c1.54.94,3.29,1.42,5.26,1.42s3.77-.6,5.34-1.79l1.63-5.86h1.99l1.08,7.06c-1.36,1.17-2.93,2.06-4.72,2.67s-3.7.92-5.72.92c-3.08,0-5.75-.57-7.99-1.71v-.03Z" fill="#fff"/>
    <path d="M61.92,27c-2.18-1.14-3.85-2.76-5.02-4.86-1.17-2.1-1.75-4.56-1.75-7.38s.64-5.27,1.91-7.51c1.28-2.25,3.02-4.01,5.22-5.3,2.21-1.29,4.66-1.93,7.38-1.93,2.98,0,5.55.57,7.73,1.71,2.18,1.14,3.85,2.76,5.02,4.86,1.17,2.1,1.75,4.56,1.75,7.38s-.64,5.27-1.91,7.51c-1.28,2.25-3.02,4.01-5.22,5.3-2.21,1.29-4.66,1.93-7.38,1.93-2.98,0-5.56-.57-7.73-1.71ZM74.68,24.39c1.36-.89,2.42-2.19,3.21-3.91.78-1.71,1.18-3.75,1.18-6.12,0-2.23-.43-4.21-1.3-5.94-.86-1.73-2.04-3.06-3.53-4.01-1.49-.94-3.15-1.42-4.98-1.42-1.73,0-3.27.45-4.62,1.34-1.36.89-2.43,2.19-3.21,3.91-.78,1.71-1.18,3.75-1.18,6.12,0,2.23.43,4.21,1.3,5.94.86,1.73,2.04,3.06,3.53,4.01,1.49.94,3.15,1.42,4.98,1.42,1.73,0,3.27-.44,4.62-1.34Z" fill="#fff"/>
    <path d="M104.5,28.31h-11.16v-1.79l3.19-1.2V3.2h-5.66l-1.75,5.46h-1.99l-.36-8.25h24.32l-.36,8.25h-1.99l-1.75-5.46h-5.66v22.13l3.19,1.2v1.79h-.02Z" fill="#fff"/>
    <path d="M131.21,28.31h-11.16v-1.79l3.19-1.2V3.2h-5.66l-1.75,5.46h-1.99l-.36-8.25h24.32l-.36,8.25h-1.99l-1.75-5.46h-5.66v22.13l3.19,1.2v1.79h-.02Z" fill="#fff"/>
  </g>
</svg>