<?xml version="1.0" encoding="UTF-8"?>
<svg id="Layer_1" xmlns="http://www.w3.org/2000/svg" version="1.1" viewBox="0 0 729.32 323.64">
  <!-- Generator: Adobe Illustrator 30.3.0, SVG Export Plug-In . SVG Version: 2.1.3 Build 182)  -->
  <rect width="729.32" height="323.64" fill="#292a76"/>
  <g>
    <g>
      <polygon points="87.42 181.37 80.15 181.37 75.26 196.83 54.46 196.83 54.46 137.61 63.32 134.2 63.32 127.15 24.45 127.15 24.45 134.2 32.29 137.61 32.29 196.26 24.45 199.67 24.45 206.72 88.45 206.72 87.42 181.37" fill="#fff"/>
      <path d="M156.88,174.78c0,6.82-1.61,12.01-4.83,15.57-3.22,3.56-7.83,5.34-13.81,5.34-5.46,0-9.66-1.78-12.62-5.34-2.96-3.56-4.43-8.71-4.43-15.46v-37.29l8.87-3.41v-7.05h-38.88v7.05l7.84,3.41v38.42c0,10.53,2.96,18.59,8.87,24.16,5.91,5.57,14.51,8.36,25.8,8.36,6.97,0,13.03-1.42,18.19-4.26,5.15-2.84,9.13-6.88,11.94-12.11,2.8-5.23,4.21-11.37,4.21-18.42v-36.15l7.84-3.41v-7.05h-27.85v7.05l8.87,3.41v37.17Z" fill="#fff"/>
      <path d="M243.22,203.82c5.04-1.93,8.88-4.68,11.54-8.24,2.65-3.56,3.98-7.69,3.98-12.39,0-4.39-1.29-8.34-3.87-11.82-2.58-3.48-6.29-6.14-11.14-7.96,3.41-1.82,6.08-4.19,8.01-7.1,1.93-2.92,2.9-6.12,2.9-9.61,0-5.91-2.56-10.65-7.67-14.21-5.12-3.56-13.28-5.34-24.5-5.34h-38.31v7.05l7.84,3.41v58.66l-7.84,3.41v7.05h41.04c6.97,0,12.98-.97,18.02-2.9ZM213.49,136.81h7.16c3.56,0,6.37,1.08,8.41,3.24,2.05,2.16,3.07,5.1,3.07,8.81,0,3.94-.95,6.88-2.84,8.81-1.9,1.93-4.93,2.9-9.09,2.9h-6.71v-23.76ZM213.49,197.06v-27.4h9.55c3.79,0,6.86,1.31,9.21,3.92,2.35,2.61,3.52,5.97,3.52,10.06,0,4.32-1.12,7.64-3.35,9.95-2.24,2.31-5.51,3.47-9.83,3.47h-9.09Z" fill="#fff"/>
      <path d="M327.9,203.82c5.04-1.93,8.88-4.68,11.54-8.24,2.65-3.56,3.98-7.69,3.98-12.39,0-4.39-1.29-8.34-3.86-11.82-2.58-3.48-6.29-6.14-11.14-7.96,3.41-1.82,6.08-4.19,8.01-7.1,1.93-2.92,2.9-6.12,2.9-9.61,0-5.91-2.56-10.65-7.67-14.21-5.12-3.56-13.28-5.34-24.5-5.34h-38.31v7.05l7.84,3.41v58.66l-7.84,3.41v7.05h41.04c6.97,0,12.98-.97,18.02-2.9ZM298.18,136.81h7.16c3.56,0,6.37,1.08,8.41,3.24,2.05,2.16,3.07,5.1,3.07,8.81,0,3.94-.95,6.88-2.84,8.81-1.9,1.93-4.93,2.9-9.09,2.9h-6.71v-23.76ZM298.18,197.06v-27.4h9.55c3.79,0,6.86,1.31,9.21,3.92,2.35,2.61,3.52,5.97,3.52,10.06,0,4.32-1.12,7.64-3.35,9.95-2.24,2.31-5.51,3.47-9.83,3.47h-9.09Z" fill="#fff"/>
      <polygon points="421.17 183.64 413.9 183.64 409.12 196.83 383.55 196.83 383.55 170.12 408.56 171.25 408.56 159.77 383.55 160.91 383.55 137.04 407.08 137.04 411.63 149.09 418.9 149.09 419.92 127.15 353.54 127.15 353.54 134.2 361.38 137.61 361.38 196.26 353.54 199.67 353.54 206.72 422.2 206.72 421.17 183.64" fill="#fff"/>
      <path d="M493.17,202.13c.06-.74.13-1.67.48-2.6l2.88-7.69c.38-1.02.97-1.82,1.43-2.46.26-.36.51-.7.63-.96l2.16-4.5,4.86-10.17v-7.82c-3.71-4.29-5.13-9.47-4.2-15.49.71-4.57,1.56-8.73,2.61-12.72.96-3.65,1.45-7.08,1.49-10.57h-19.91v7.05l8.87,3.41v41.15l-40.7-51.61h-23.08v7.05l7.84,3.41v58.66l-7.84,3.41v7.05h27.85v-7.05l-8.87-3.41v-41.04l40.58,51.5h1.23c.53-1.14,1.04-2.31,1.51-3.5.08-.19.12-.69.15-1.09Z" fill="#fff"/>
    </g>
    <g>
      <polygon points="34.5 220.85 25.59 220.85 25.59 221.82 28.53 222.19 38.18 246.84 39.48 246.84 49.17 222.19 52.29 221.82 52.29 220.85 43.45 220.85 43.45 221.82 47.57 222.19 39.07 244.5 30.57 222.19 34.5 221.82 34.5 220.85" fill="#807aa8"/>
      <polygon points="55.07 245.88 55.07 246.84 75.9 246.84 75.79 239.79 74.78 239.79 74.23 245.54 60.42 245.54 60.42 233.85 71.7 234.07 71.7 232.55 60.42 232.77 60.42 222.15 73.78 222.15 74.3 227.54 75.3 227.54 75.42 220.85 55.07 220.85 55.07 221.82 58.56 222.19 58.56 245.47 55.07 245.88" fill="#807aa8"/>
      <polygon points="98.77 222.15 99.29 228.28 100.33 228.28 100.44 220.85 79.61 220.85 79.69 228.28 80.72 228.28 81.24 222.15 89.08 222.15 89.08 245.47 85.59 245.88 85.59 246.84 94.42 246.84 94.42 245.88 90.93 245.47 90.93 222.15 98.77 222.15" fill="#807aa8"/>
      <polygon points="103.78 245.88 103.78 246.84 124.61 246.84 124.49 239.79 123.49 239.79 122.94 245.54 109.13 245.54 109.13 233.85 120.41 234.07 120.41 232.55 109.13 232.77 109.13 222.15 122.49 222.15 123.01 227.54 124.01 227.54 124.12 220.85 103.78 220.85 103.78 221.82 107.27 222.19 107.27 245.47 103.78 245.88" fill="#807aa8"/>
      <path d="M140.16,235.55c.5,0,.87-.01,1.11-.04l6.09,11.32h5.01v-.97l-3.68-.41-5.68-10.17c2.15-.45,3.82-1.32,4.99-2.64,1.18-1.31,1.76-2.87,1.76-4.68,0-2.18-.76-3.91-2.26-5.2-1.51-1.29-3.69-1.93-6.53-1.93h-12.33v.97l3.49.37v23.28l-3.49.41v.97h8.84v-.97l-3.49-.41v-9.91h6.16ZM134,222.15h6.68c2.33,0,4.11.55,5.35,1.65,1.24,1.1,1.86,2.58,1.86,4.44s-.66,3.27-1.99,4.38c-1.32,1.11-3.22,1.67-5.7,1.67h-6.2v-12.14Z" fill="#807aa8"/>
      <polygon points="163.66 221.82 163.66 220.85 154.83 220.85 154.83 221.82 158.32 222.19 158.32 245.47 154.83 245.88 154.83 246.84 163.66 246.84 163.66 245.88 160.17 245.47 160.17 222.19 163.66 221.82" fill="#807aa8"/>
      <polygon points="189.09 246.84 190.35 246.84 190.35 222.19 193.84 221.82 193.84 220.85 185.16 220.85 185.16 221.82 189.02 222.19 189.02 243.76 171.98 220.85 167.19 220.85 167.19 221.82 170.68 222.19 170.68 245.47 167.19 245.88 167.19 246.84 175.91 246.84 175.91 245.88 172.05 245.47 172.05 223.94 189.09 246.84" fill="#807aa8"/>
      <polygon points="197.37 245.88 197.37 246.84 218.2 246.84 218.09 239.79 217.08 239.79 216.53 245.54 202.72 245.54 202.72 233.85 214 234.07 214 232.55 202.72 232.77 202.72 222.15 216.08 222.15 216.6 227.54 217.6 227.54 217.71 220.85 197.37 220.85 197.37 221.82 200.86 222.19 200.86 245.47 197.37 245.88" fill="#807aa8"/>
      <path d="M239.99,246.84h8.87v-.97l-2.93-.41-9.95-24.61h-1.52l-10.17,24.61-3.12.41v.97h8.84v-.97l-4.12-.41,2.64-6.57h12.81l2.6,6.57-3.93.41v.97ZM229.04,237.63l5.94-14.85,5.87,14.85h-11.81Z" fill="#807aa8"/>
      <path d="M251.65,221.82l3.49.37v23.28l-3.49.41v.97h8.84v-.97l-3.49-.41v-9.91h6.16c.5,0,.87-.01,1.11-.04l6.09,11.32h5.01v-.97l-3.68-.41-5.68-10.17c2.15-.45,3.82-1.32,4.99-2.64,1.18-1.31,1.76-2.87,1.76-4.68,0-2.18-.76-3.91-2.26-5.2-1.51-1.29-3.69-1.93-6.53-1.93h-12.33v.97ZM256.99,222.15h6.68c2.33,0,4.11.55,5.35,1.65,1.24,1.1,1.86,2.58,1.86,4.44s-.66,3.27-1.99,4.38c-1.32,1.11-3.22,1.67-5.7,1.67h-6.2v-12.14Z" fill="#807aa8"/>
      <polygon points="297.35 222.19 300.47 221.82 300.47 220.85 291.52 220.85 291.52 221.82 295.64 222.19 287.62 235.89 279.75 222.19 283.68 221.82 283.68 220.85 274.74 220.85 274.74 221.82 277.67 222.19 286.51 237.3 286.51 245.47 283.02 245.88 283.02 246.84 292.22 246.84 292.22 245.88 288.36 245.47 288.36 237.04 297.35 222.19" fill="#807aa8"/>
      <path d="M324.28,244.34c-1.22,1.05-2.94,1.58-5.14,1.58-2.5,0-4.76-.51-6.79-1.52l-.37-5.12h-1.04l-.22,6.13c2.52,1.21,5.28,1.82,8.28,1.82,1.83,0,3.43-.33,4.79-.98,1.36-.66,2.4-1.54,3.12-2.65.72-1.11,1.08-2.35,1.08-3.71,0-1.61-.37-2.9-1.11-3.86-.74-.97-1.65-1.68-2.73-2.15-1.08-.47-2.49-.94-4.25-1.41-1.56-.42-2.8-.82-3.71-1.19-.92-.37-1.68-.92-2.3-1.65-.62-.73-.93-1.69-.93-2.88,0-1.41.58-2.59,1.74-3.53,1.16-.94,2.78-1.41,4.86-1.41,1.09,0,2.14.14,3.16.41,1.01.27,1.92.66,2.71,1.15l.41,4.79h1.04l.26-5.75c-2.35-1.26-4.81-1.89-7.39-1.89-1.76,0-3.29.3-4.59.91-1.3.61-2.3,1.42-2.99,2.43-.69,1.02-1.04,2.13-1.04,3.34,0,1.49.35,2.67,1.06,3.55.71.88,1.57,1.53,2.58,1.97,1.01.43,2.38.88,4.08,1.35,1.63.47,2.93.91,3.88,1.32.95.41,1.76,1.01,2.41,1.8.66.79.98,1.84.98,3.16,0,1.63-.61,2.98-1.84,4.03Z" fill="#807aa8"/>
      <polygon points="350.95 222.15 351.48 227.54 352.48 227.54 352.59 220.85 332.24 220.85 332.24 221.82 335.73 222.19 335.73 245.47 332.24 245.88 332.24 246.84 353.07 246.84 352.96 239.79 351.96 239.79 351.4 245.54 337.59 245.54 337.59 233.85 348.88 234.07 348.88 232.55 337.59 232.77 337.59 222.15 350.95 222.15" fill="#807aa8"/>
      <path d="M368.63,235.55c.49,0,.87-.01,1.11-.04l6.09,11.32h5.01v-.97l-3.68-.41-5.68-10.17c2.15-.45,3.82-1.32,4.99-2.64,1.18-1.31,1.76-2.87,1.76-4.68,0-2.18-.75-3.91-2.26-5.2-1.51-1.29-3.69-1.93-6.53-1.93h-12.33v.97l3.49.37v23.28l-3.49.41v.97h8.84v-.97l-3.49-.41v-9.91h6.16ZM362.46,222.15h6.68c2.33,0,4.11.55,5.35,1.65,1.24,1.1,1.86,2.58,1.86,4.44s-.66,3.27-1.99,4.38c-1.32,1.11-3.22,1.67-5.7,1.67h-6.2v-12.14Z" fill="#807aa8"/>
      <polygon points="393.17 246.84 394.47 246.84 404.15 222.19 407.27 221.82 407.27 220.85 398.44 220.85 398.44 221.82 402.56 222.19 394.06 244.5 385.56 222.19 389.49 221.82 389.49 220.85 380.58 220.85 380.58 221.82 383.51 222.19 393.17 246.84" fill="#807aa8"/>
      <polygon points="418.89 221.82 418.89 220.85 410.06 220.85 410.06 221.82 413.55 222.19 413.55 245.47 410.06 245.88 410.06 246.84 418.89 246.84 418.89 245.88 415.4 245.47 415.4 222.19 418.89 221.82" fill="#807aa8"/>
      <path d="M429.44,245.6c2.01,1.08,4.34,1.61,7.02,1.61,3.64,0,6.86-1.11,9.65-3.34l-.3-6.31h-1l-.52,5.68c-2.28,1.73-4.8,2.6-7.57,2.6-2.33,0-4.36-.49-6.11-1.47-1.74-.98-3.09-2.37-4.05-4.18-.95-1.81-1.43-3.92-1.43-6.35s.48-4.51,1.45-6.33,2.32-3.22,4.07-4.21c1.74-.99,3.76-1.48,6.03-1.48,2.75,0,5.2.61,7.35,1.82l.41,5.01h1l.3-5.94c-2.57-1.48-5.51-2.23-8.8-2.23-2.67,0-5.05.58-7.13,1.73-2.08,1.15-3.7,2.77-4.86,4.85-1.16,2.08-1.74,4.45-1.74,7.13s.54,4.88,1.61,6.85c1.08,1.97,2.62,3.49,4.62,4.57Z" fill="#807aa8"/>
      <polygon points="450.04 245.88 450.04 246.84 470.87 246.84 470.76 239.79 469.75 239.79 469.2 245.54 455.39 245.54 455.39 233.85 466.67 234.07 466.67 232.55 455.39 232.77 455.39 222.15 468.75 222.15 469.27 227.54 470.27 227.54 470.38 220.85 450.04 220.85 450.04 221.82 453.53 222.19 453.53 245.47 450.04 245.88" fill="#807aa8"/>
    </g>
    <g opacity=".5">
      <path d="M42.38,112.01c-1.01.85-2.52,1.28-4.51,1.28-2.35,0-4.43-.51-6.25-1.54l-1.36-5.19h-2.2l-.97,7.57c1.53.79,3.1,1.36,4.73,1.72,1.63.35,3.57.53,5.83.53s4.26-.43,6.01-1.28c1.75-.85,3.09-1.99,4.03-3.43.94-1.44,1.41-2.99,1.41-4.67,0-1.91-.42-3.44-1.25-4.6s-1.86-2.03-3.06-2.62c-1.2-.59-2.79-1.19-4.75-1.8-1.61-.53-2.89-1-3.83-1.43-.94-.42-1.72-1-2.33-1.74-.62-.73-.92-1.69-.92-2.86,0-1.26.48-2.27,1.43-3.04.95-.76,2.37-1.14,4.25-1.14s3.42.51,4.89,1.54l1.41,4.93h2.2l.97-7.13c-2.67-1.61-5.75-2.42-9.24-2.42-2.23,0-4.18.4-5.85,1.21s-2.96,1.89-3.87,3.23c-.91,1.35-1.36,2.8-1.36,4.36,0,1.85.41,3.33,1.23,4.45.82,1.12,1.81,1.96,2.97,2.53,1.16.57,2.72,1.18,4.69,1.83,1.64.53,2.94,1.01,3.9,1.45.95.44,1.75,1.04,2.4,1.8.64.76.97,1.76.97,2.99,0,1.47-.51,2.63-1.52,3.48Z" fill="#fff"/>
      <path d="M61.57,114.47c2.48,1.26,5.42,1.89,8.83,1.89,2.23,0,4.34-.34,6.32-1.01,1.98-.67,3.72-1.66,5.22-2.95l-1.19-7.79h-2.2l-1.8,6.47c-1.73,1.32-3.7,1.98-5.9,1.98s-4.11-.52-5.81-1.56c-1.7-1.04-3.04-2.51-4.01-4.4s-1.45-4.09-1.45-6.58c0-4.08.97-7.19,2.93-9.33,1.95-2.14,4.73-3.21,8.34-3.21,2.11,0,4.06.54,5.85,1.63l1.41,5.06h2.2l1.19-7.35c-1.17-.82-2.68-1.47-4.51-1.94-1.83-.47-3.73-.7-5.7-.7-3.4,0-6.42.7-9.05,2.11-2.63,1.41-4.67,3.37-6.12,5.88-1.45,2.51-2.18,5.35-2.18,8.52s.65,5.68,1.96,7.97c1.31,2.29,3.2,4.06,5.68,5.33Z" fill="#fff"/>
      <path d="M93.37,114.47c2.41,1.26,5.25,1.89,8.54,1.89,2.99,0,5.71-.71,8.14-2.14,2.44-1.42,4.36-3.37,5.77-5.85,1.41-2.48,2.11-5.25,2.11-8.3s-.65-5.82-1.94-8.14c-1.29-2.32-3.14-4.11-5.55-5.37-2.41-1.26-5.25-1.89-8.54-1.89-2.99,0-5.71.71-8.14,2.14-2.44,1.42-4.36,3.37-5.77,5.85-1.41,2.48-2.11,5.25-2.11,8.3s.65,5.83,1.94,8.14c1.29,2.32,3.14,4.11,5.55,5.37ZM92.82,93.76c.87-1.89,2.05-3.33,3.54-4.31,1.5-.98,3.2-1.48,5.11-1.48,2.02,0,3.86.52,5.5,1.56,1.64,1.04,2.94,2.52,3.9,4.42.95,1.91,1.43,4.09,1.43,6.56,0,2.61-.43,4.86-1.3,6.76-.87,1.89-2.05,3.33-3.54,4.31-1.5.98-3.2,1.48-5.11,1.48-2.02,0-3.86-.52-5.5-1.56-1.64-1.04-2.94-2.52-3.9-4.42-.95-1.91-1.43-4.09-1.43-6.56,0-2.61.43-4.86,1.3-6.76Z" fill="#fff"/>
      <polygon points="123.39 94.22 125.33 88.19 131.58 88.19 131.58 112.62 128.06 113.94 128.06 115.92 140.38 115.92 140.38 113.94 136.86 112.62 136.86 88.19 143.11 88.19 145.05 94.22 147.25 94.22 147.64 85.11 120.79 85.11 121.19 94.22 123.39 94.22" fill="#fff"/>
      <polygon points="152.88 94.22 154.82 88.19 161.07 88.19 161.07 112.62 157.55 113.94 157.55 115.92 169.87 115.92 169.87 113.94 166.35 112.62 166.35 88.19 172.6 88.19 174.54 94.22 176.74 94.22 177.13 85.11 150.29 85.11 150.68 94.22 152.88 94.22" fill="#fff"/>
    </g>
    <path d="M621.52,255.6c.05-.14.09-.27.14-.4-.08-.01-.15-.03-.22-.05.03.15.05.3.08.45Z" fill="#231f20"/>
    <path d="M633.96,255.65h.11c.03-.07.05-.15.08-.22-.07.07-.12.14-.19.22Z" fill="#a7a9ac"/>
    <g>
      <path d="M551.59,251.84c-.2-.88.87-1.87,1.39-2.44.9-1,1.65-1.36,2.97-1.49.15-.01.32-.07.49-.13-.19-1.86,1.29-3.05,2.44-4.35.14-.16.29-.31.45-.46.1-1.13-.03-2.3-.33-3.44-1.21-4.56-2.02-9-2.23-13.77-.15-3.38-.55-6.7,0-10.05.05-.28.1-.56.15-.84-.53-.13-1.07-.27-1.64-.41-4.97-3.75-6.55-9.33-8.9-14.95-1.88-1.08-2.33-3.42-3.63-5.33.32-1.23-.24-2.39-.6-3.57-.27-.88-.85-1.77-.77-2.62.21-2.46-.64-4.83-.58-6.65-1.66-4.37-2.55-8.45-5.5-11.62-2.33-.23-4.65.25-7.05-.44-.99.47-2.12.49-3.44.04-1.26-.43-2.37-.87-3.01-1.84-1.3-.24-2.53-.47-3.76-.7.09-.1.18-.21.26-.31-.51-.26-1.01-.52-1.65-.85,1.44-1.44.55-3.06,1.28-4.53.66-1.33.55-2.97.83-4.82.51-.52,1.37-1.21,1.97-2.05.56-.78.85-1.72,1.14-2.34-.14-.59-.31-.93-.29-1.26.19-2.35-.23-4.7.45-7.07.55-1.9-.3-3.89-.96-5.7-.79-2.18-.41-4.08.51-6.09-.47-.96-1.71-1.04-2.7-1.48-.86.79-2.04.76-3.26.85-2.48.18-3.55-.07-5.25-1.5-.66-.55-1.33-1.11-2.02-1.63-.11,3.53-.64,6.94-1.56,10.43-1.09,4.13-1.9,8.2-2.55,12.43-1.1,7.11,1.54,12.4,7.13,16.46.18.46-.05,1.1-.28,1.57l-7.76,16.24-2.17,4.51c-.53,1.11-1.52,2-1.97,3.19l-2.88,7.69c-.43,1.14-.2,2.58-.65,3.73-1.63,4.18-3.7,8.03-5.92,11.87l-2.37,3.03c-1.28,1.63-1.61,3.88-1.99,5.92-.45,2.4-1.48,4.41-2.59,6.53l-1.9,3.66c-.85,1.12-1.14,2.12-1.65,3.39l-3.9,9.74c-.25.63-.43,1.82-.08,2.3.33.46.9.65,1.61.65,2.72,0,7.59-2.85,9.73-4.47.72-.55,1.04-1.32,1.12-2.2.15-1.58.65-2.93,1.25-4.35.49-1.17-.25-2.48-.33-3.68-.12-1.72.82-3.39,1.89-4.55.7-.76,1.48-.67,2.43-.74,1.57-.12,2.91-3.6,3-5.39.14-2.95.69-5.52,1.82-8.22,1.66-3.97,3.5-7.81,6.3-11.07l2.98-2.58c2.32-2.01,3.8-4.62,5.16-7.47l11.63-12.85,4.24-4.22,3.27-3.12c.8-.76,1.32-1.5,1.82-2.61.16-.03.34-.04.53-.04.58,0,1.24.14,1.7.39l3.69,10.3c1.86,5.2,3.59,10.3,5.12,15.62l.68,4.57c.75,3.1,1.26,6.19,2.26,9.2l1.41,4.22c.92,4.7,1.55,9.35,1.8,14.15.11,2.1-.12,4.03-.58,6.04l-.91,3.95c-.41,1.78-1.57,3.46-2.77,4.79l-2.16,1.78c-.52.43-.77,1.36-1.13,1.94l-3.06,4.9h11.47c.66-1.34.68-2.36.35-3.81Z" fill="#231f20"/>
      <path d="M624.62,247.81c-1.21.76-1.94,1.42-2.74,2.67l-1.04,1.64.14.71c.54-1.05,1.61-2.44,3.25-4.19.14-.27.25-.55.38-.83Z" fill="#231f20"/>
      <path d="M636.89,244.67c-.44-1.14-.76-2.29-.99-3.48-.68.24-1.39.41-2.12.52.06.92.13,1.83.22,2.76l.43,1.8c.18.75.13,1.74-.46,2.26.55-.36,1.15-.57,1.82-.57.24,0,.48.03.73.08.27-.07.52-.18.76-.3,0-.04.01-.07.02-.11.14-1.06-.03-2.02-.41-2.97Z" fill="#231f20"/>
      <path d="M692.74,199.58c2.59,1.58,5.31,2.52,8.31,2.74l.52-.46c.11-.1,0-.46-.05-.66-2.29-2.69-4.05-5.58-5.36-8.92-5.03-12.14-4.46-26.24-1.17-38.87l3.35-12.84c.68-2.61,1.02-5.15,1.12-7.89.44-12.15-6.09-24.7-17.58-28.3-2.55-.8-4.93-1.05-7.06-1.05-3.48,0-6.26.66-7.9.66-.54,0-.95-.07-1.23-.26l-4.05-2.76c-4.73-3.22-9.53-6.11-14.78-8.33-3.92-1.66-8.07-2.38-12.25-2.38-3.5,0-7.03.51-10.45,1.38l-12.81,3.27c-7.6,1.94-15.96,3.35-24.08,3.35-3.84,0-7.64-.31-11.28-1.03-4.23-.84-8.16-2.3-12.12-3.95l-5.44-5.74c-3.38-3.56-6.81-6.83-10.45-10.12-11.51-10.41-23.96-18.04-38.92-21.73-4.28-1.06-8.51-1.76-12.83-1.76-.78,0-1.57.02-2.37.07-2.89.18-5.73.5-8.38,1.58-.7.29-1.33.64-2.01.64-.33,0-.66-.08-1.03-.29-1.12-3.27-2.89-6.09-5.19-8.63-.95-1.05-1.94-2.3-2.76-3.38-.09-.12-.37-.22-.56-.22-.08,0-.15.02-.19.06l-.55.65c-.25,3.73.35,7.12,1.99,10.67l-5.74-3.88c-1.58-1.07-2.31-2.32-2.94-2.32-.1,0-.19.03-.28.09-.2.13-.38.69-.36.97.21,3.14,1.43,5.85,3.22,8.38,1.18,1.66,2.86,2.87,4.42,4.2-1.46,3.59-1.69,7.82-3.2,10.93-1.56,3.21-2.67,4.89-.72,8.41.57,1.04.89,2.08.76,3.29l-.27,2.53c-.54,5.01-1.79,9.76-3.05,14.61-.57,2.19-1.34,4.04-2.24,6.12-.53,1.22-.28,3.03.18,4.22.57,1.47,1.05,2.76,1.36,4.3.15.71.27,1.67.61,2.27.78,1.38,2.19,2,3.64,2,.44,0,.89-.06,1.33-.17.84-.21,1.38-.7,2.1-1.45.15.98.83,1.8,1.82,1.8.05,0,.09,0,.14,0,1.81-.14,3.82-.75,5.03-2.3.85-1.08.97-2.91,1.05-4.26.09-1.6.55-2.57,1.58-3.7,2.62-2.87,4.98-5.89,7.09-9.13,4.96-1.08,7.54-2.87,9.91-7.45.85,1.49,1.56,2.93,2.17,4.55,2.25,5.95,3.89,12.06,4.81,18.33,1.74-.51,3.61-.36,5.45-.32.87.71,2.42.21,2.96,1.03.41.62,1.04.75,1.47,1.2.49.51,1.03.98,1.57,1.45.4.34.83.65,1.32,1.04,1.4-1.75,3.88-2.04,5.13-3.76,2.58-.81,4.22-2.61,5.58-4.6,1.19-1.75,3.04-2.67,4.93-3.38,1.62-.61,3.4-.86,5.31-.14,1.64.62,3.26,1.3,4.77,2.1,1.31.69,2.66,1.49,3.4,2.94.69,1.35,1.83,2.51,2.47,3.36,1.08.39,1.65.6,2.23.79.58.19.83.52,1.04,1.07.19.5.83.87,1.18,1.21.6,0,1.02,0,1.53,0,1.18-1.41,2.82-2.09,4.82-1.76,1.77.29,3.51.73,4.83,1.99.57.55,1.17,1.08,1.79,1.65.78,0,1.73-.23,2.41.06,1.89.8,3.95.79,5.9,1.27,2.07.51,4.32.46,6.5.55,1.15.05,2.24.11,3,.82,1.35.21,2.6.41,3.85.59,1.25.18,2.6.14,3.74.57.64.24,1.21.31,1.83.37,1.68.16,3.35.32,5.03.48.76.93,1.96.39,2.94.66,2.32.65,4.68,1.26,7.2,1.24,7.07-.06,14.13.02,21.2.1,3.15.03,6.27.03,9.32-.85,2.28-.66,4.71-.8,6.93-1.74,1.24-.52,2.68-.78,4.06-.89,1.99-.16,3.92.43,5.65,1.24,1.72.8,3.46.52,5.21.57,1.1-.95,2.74.11,3.86-.84.11-.09.57-.04.67.09.52.61,1.23.35,1.84.35,1.62.01,2.95.42,4.08,1.1-.53-4.65-1.56-8.99-2.96-13.59.42-.16.88-.24,1.36-.24.36,0,.74.04,1.12.12,6.21,1.21,9.54,8.06,10.1,14.23.16,1.73.14,3.37.02,4.98.11.09.21.19.33.27,1.45,1.07,2.59,3.11,2.7,4.63.28,3.81-.6,7.56-.58,11.35-.73,1.47-.48,3.03-.53,4.56,0,.21-.05.43-.13.63-.54,1.36-.68,2.79-.85,4.2-.17,1.43-.56,2.8-.93,4.18-.32,1.18-.46,2.4-.64,3.61-.2,1.37-.07,2.84-.62,4.07-.4.9-.33,1.71-.4,2.56-.08.94-.54,1.77-.6,2.75-.11,1.76-.55,3.53-1.1,5.23-.16.48-.35.94-.35,1.44-.01.85-.05,1.71-.07,2.56.88,1.78,1.92,3.49,3.15,5.07,2.58,3.3,5.58,5.89,9.13,7.95Z" fill="#231f20"/>
      <path d="M682.96,232.61c.65-.11,1.31.05,1.81.46.56.45.56,1.11.2,1.72l1.05.97c.34.31.63.63.91,1.02-.11.02-.19,0-.31-.02.36.44.64.88.88,1.38.32.67.67,1.26,1.12,1.87-.18.04-.28-.02-.43-.06.24.42.55.72.93,1.04-.08.07-.18.07-.32.07l1.05,1.16c.91,1,1.75,2.03,2.54,3.13l.29.4c-.05-1.18.26-2.37,1.02-3.36.19-.25.64-.4.99-.65-.37-2.09-1.28-3.93-2.53-5.63-1.38-1.88-2.91-3.62-4.21-5.59-1.37-2.1-2.54-4.31-2.86-7-.07-.58-.09-1.17-.12-1.76,0-.06-.05-.19.08-.16.04,0,.05.1.11.22.06-.74.1-1.43.2-2.12.07-.47.1-.99.32-1.36.1-.17.18-.35.27-.53-.64-2.19-1.22-4.4-1.74-6.66l-.39-3.01-.84-8.02c-.36.88-.67,1.76-.56,2.74-1.04,1.12-.32,2.44-.51,3.66-.22,1.44.32,2.93-.5,4.35-.23.4-.24,1.2.05,1.51.6.63.33,1.27.38,1.91.24,2.9-.71,5.9.95,8.68.07.12.01.3,0,.45-.09,1.94.31,3.72,1.85,5.2.21.2.09.68.14,1.2-.74,0-1.36,0-1.8-.01-.27.24-.43.39-.61.55.21.82.37,1.59.49,2.28.03,0,.05-.02.08-.03Z" fill="#231f20"/>
      <path d="M680.51,189.43c.02.22.02.45.05.67.19,1.72.54,3.45,1.72,5.01.09.12.17.24.26.36-.16-1.57-.41-3.13-1.06-4.55l-.96-1.49Z" fill="#231f20"/>
      <path d="M584.71,247.46c.11-.14.37-.28.52-.26.49.06.74-.09,1.01-.51.15-.24.29-.48.43-.73-.42-1.07-.68-2.19-1.04-3.26-.35-1.05-.6-2.16-.83-3.26-.04.03-.09.06-.13.09-.08,2.65-.07,5.29.04,7.93Z" fill="#58595b"/>
      <path d="M580.63,246.22c.29-3.47.12-6.9-.51-10.28.02-4.68-.66-9.22-2.04-13.61-.69-.51-1.41-.96-2.17-1.36-.49-.84-1.01-1.66-1.55-2.45-.24,1.2-.48,2.41-.9,3.54-.3.8-.33,1.54-.41,2.2,1.19,1.7,2.31,3.32,3.46,4.94.51.71,1.13,1.37,1.23,2.26.12,1.16.04,2.37.39,3.48.34,1.1.46,2-.1,3.1-.37.73-.12,1.66-.53,2.52-.43.89-.21,2.04-.62,2.94-.59,1.3-.41,2.59-.47,3.77-.89.8-1.71,1.53-2.59,2.31.58,1.73-.8,2.79-1.65,3.89-.56.72-.99,1.45-1.3,2.21h5.38c.92-2,2.04-3.84,3.37-5.5.56-1.23.9-2.54,1.02-3.93Z" fill="#58595b"/>
      <path d="M585.41,250.31c0-.24,0-.5,0-.76,0-.01-.02-.03-.03-.04l-.64-1.18c.06,1.22.13,2.43.22,3.64-.13.15-.26.3-.38.45-1.31-.58-1.99-.03-2.04,1.66.22.56.31,1.08.26,1.57h2.9c.25-.55.44-1.12.63-1.69.63-1.9.62-1.99-.93-3.65Z" fill="#58595b"/>
      <path d="M508.35,128.01c.7.52,1.36,1.08,2.02,1.63,1.7,1.42,2.78,1.68,5.25,1.5,1.22-.09,2.4-.06,3.26-.85,1,.44,2.23.53,2.7,1.48-.92,2.01-1.3,3.92-.51,6.09.66,1.81,1.5,3.8.96,5.7-.68,2.37-.27,4.72-.45,7.07-.03.33.14.67.29,1.26-.29.62-.58,1.56-1.14,2.34-.6.84-1.46,1.53-1.97,2.05-.28,1.84-.17,3.49-.83,4.82-.73,1.47.15,3.09-1.28,4.53.64.33,1.15.59,1.65.85-.09.1-.18.21-.26.31,1.23.23,2.46.46,3.76.7.64.96,1.75,1.41,3.01,1.84,1.33.45,2.45.43,3.44-.04,2.4.69,4.72.21,7.05.44,2.95,3.17,3.84,7.25,5.5,11.62-.06,1.82.79,4.19.58,6.65-.07.85.51,1.75.77,2.62.36,1.18.91,2.33.6,3.57,1.31,1.91,1.75,4.25,3.63,5.33,2.36,5.62,3.93,11.2,8.9,14.95.57.14,1.11.28,1.64.41.74.18,1.46.36,2.21.55-.11.93,0,1.76.25,2.54.41,1.28,1.19,2.4,2.03,3.49,1.39,1.81,2.28,3.72,2.15,5.99-.09,1.65-.05,3.32-.04,4.98,0,1.17-.89,2.22-.52,3.43.14.47.29.94.5,1.62-.48.55-1.05,1.21-1.63,1.88-.05.06-.1.12-.15.18-.25.28-.69.56-.71.85-.06,1.18-.9,1.86-1.67,2.6-.15.15-.31.3-.45.46-1.15,1.29-2.62,2.48-2.44,4.35,0,.02,0,.04,0,.07.91.92,1.98,1.21,3.23,1.16.02,0,.04,0,.06,0,.99-.05,2-.06,2.99.02,1.96.16,3.74-.49,5.58-.89.22-.05.5-.11.62-.26,1.08-1.38,2.72-2.5,2.52-4.14-.69-1.05-1.2-1.84-1.76-2.7.42-.44.73-.75,1.07-1.11.71.33,1.36.64,2.23,1.05-.32-1.62-.62-3.04-1.54-4.71,0-.35,0-1.1.01-1.85,0-.52-.22-.94-.42-1.42-.54-1.31-.84-2.71-1.1-4.12-.49-2.66-.46-5.31-.37-7.97.06-1.59.37-3.17.64-4.74.04-.23.27-.31.07-.66-.4-.73-.24-1.47.09-2.29.35-.87.21-1.89.3-3,.14-.06.29-.12.43-.17-.16-1.04-.31-2.08-.45-3.12-1.64-3.38-3.34-6.7-5.1-9.98-.99-2.86-2.18-5.58-3.57-8.17-.51-1.01-1.19-1.82-2.04-2.42-1.17.72-2.41,1.22-3.7,1.51.44,3.03-.07,6.06-1.53,9.07-.34-1.18-.59-1.08-.77.3-.34.3-.68.6-1.02.91-.08-.15-.17-.3-.26-.45.44-.89.7-1.85.77-2.87.16-.18.25-.43.26-.76-.23-.7-.49-1.36-.77-1.97-.12-1.14-.55-2.1-1.28-2.87-1.24.36-2.52.47-3.83.3-.91-.88-1.8-1.74-2.68-2.57.02-1.13-.02-2.24-.13-3.33.1-.51.23-1.02.38-1.51,1.76-3.61,3.67-7.09,5.74-10.44-1.46-.92-2.77-2.08-3.95-3.48-.13-.49-.17-1-.13-1.51.64.08,1.24.33,1.79.76,1.1.15,2.21.2,3.32.15.05-2.38,1.07-3.9,3.06-4.54,2.64-4.28,6.21-6.1,10.71-5.44,4.6-.75,8.56.76,11.86,4.54.81,1.31,1.49,2.72,2.04,4.23.19.69.15,1.34-.13,1.97-.38.15-.68,0-.89-.45-1.39-3.07-3.47-5.19-6.25-6.35-.08.1-.17.2-.26.3,1.15,2.02,1.7,4.24,1.66,6.65-.1.14-.23.24-.38.3-.8-1.5-1.61-3.01-2.42-4.54-1.85-2-4.02-2.76-6.5-2.27-.33.95-.33,1.9,0,2.87,1.16.62,2.14,1.53,2.93,2.72,2.91,5.37,6.44,10.05,10.58,14.07.92.46,1.85.87,2.81,1.21,5.24-.52,10.42-.12,15.56,1.21,2.47.2,4.93.2,7.4,0,3.45-.93,6.92-1.72,10.42-2.38l-.31-1.74c-.22-1.21-.51-2.35-.97-3.47-.61-1.5-.98-2.99-1.28-4.6-.14-.78-.79-1.47-1.48-1.73-.91-.34-1.85-.32-2.79-.2-.87.84-1.97.93-3.03.45-1,.21-1.96.25-2.92.05-1.08-.27-1.93-1.02-2.24-2.15-1.03-.39-1.73-1.19-2.19-2.21l-.93-2.69c-.27-.76-.93-1.33-1.1-2.15-.17-.81.05-1.52.76-1.95l1.48-.56,3.52-1.87,1.95-1.25c.52-.34.68-1.04.52-1.65-.32-1.25.14-2.12.88-3.04l1.48-1.87c.96-1.21,2.25-2.06,3.75-2.45l4.71-1.21c1.1-.28,2.25-.33,3.36-.23,1.51.14,2.77.81,3.88,1.85l2.06,2.56c3.35,2.28,6.4,5.74,8.84,9.07,2.54,3.47,4.98,6.91,7.27,10.56.55.88,1.1,1.72,1.66,2.55l30.72-5.45,10.28,66.65s.02,0,.03,0c.06-.04.12-.07.18-.1-.42-.59-.18-1.57-.24-2.3.06-.06.12-.11.18-.16.18-.16.34-.31.61-.55.44,0,1.06,0,1.8.01-.05-.52.07-1-.14-1.2-1.54-1.48-1.94-3.26-1.85-5.2,0-.15.06-.33,0-.45-1.66-2.78-.71-5.78-.95-8.68-.05-.63.22-1.28-.38-1.91-.29-.3-.29-1.11-.05-1.51.82-1.42.28-2.91.5-4.35.19-1.22-.54-2.54.51-3.66-.11-.98.2-1.86.56-2.74.1-.26.21-.51.32-.77.55-1.39,0-2.76-.77-3.88-.08-.12-.17-.24-.26-.36-1.18-1.56-1.53-3.28-1.72-5.01-.03-.22-.03-.45-.05-.67-.07-.95-.07-1.91-.04-2.86.03-.85.06-1.71.07-2.56,0-.5.2-.96.35-1.44.55-1.7.99-3.47,1.1-5.23.06-.97.52-1.81.6-2.75.07-.85,0-1.66.4-2.56.55-1.23.42-2.71.62-4.07.18-1.21.33-2.43.64-3.61.37-1.39.76-2.75.93-4.18.17-1.41.31-2.84.85-4.2.08-.2.12-.42.13-.63.05-1.53-.2-3.09.53-4.56-.02-3.79.86-7.54.58-11.35-.11-1.52-1.25-3.56-2.7-4.63-.12-.09-.22-.18-.33-.27-.41-.36-.73-.74-.9-.91-.65-.19-1.26-.37-1.85-.55-1.32-.39-2.53-.75-3.79-1.13-.07-.02-.13-.04-.19-.06-.78-1.15-1.72-2.14-2.89-2.85-1.12-.67-2.45-1.08-4.08-1.1-.62,0-1.32.26-1.84-.35-.11-.12-.56-.18-.67-.09-1.12.95-2.76-.12-3.86.84-1.75-.05-3.49.23-5.21-.57-1.74-.81-3.66-1.39-5.65-1.24-1.38.11-2.82.36-4.06.89-2.23.94-4.65,1.08-6.93,1.74-3.05.88-6.17.89-9.32.85-7.07-.08-14.13-.16-21.2-.1-2.53.02-4.88-.59-7.2-1.24-.98-.27-2.17.27-2.94-.66-1.68-.16-3.35-.32-5.03-.48-.62-.06-1.19-.13-1.83-.37-1.14-.43-2.48-.39-3.74-.57-1.25-.18-2.5-.38-3.85-.59-.77-.72-1.85-.77-3-.82-2.18-.09-4.43-.04-6.5-.55-1.95-.48-4.02-.47-5.9-1.27-.68-.29-1.63-.05-2.41-.06-.63-.58-1.22-1.1-1.79-1.65-1.31-1.26-3.06-1.69-4.83-1.99-1.99-.33-3.64.36-4.82,1.76-.51,0-.93,0-1.53,0-.35-.34-.99-.7-1.18-1.21-.21-.55-.46-.88-1.04-1.07-.58-.19-1.15-.41-2.23-.79-.64-.85-1.78-2-2.47-3.36-.74-1.45-2.09-2.25-3.4-2.94-1.5-.79-3.12-1.48-4.77-2.1-1.91-.72-3.69-.47-5.31.14-1.89.71-3.74,1.63-4.93,3.38-1.35,1.99-2.99,3.79-5.58,4.6-1.25,1.72-3.73,2.01-5.13,3.76-.49-.39-.92-.7-1.32-1.04-.54-.47-1.09-.94-1.57-1.45-.43-.45-1.06-.58-1.47-1.2-.54-.82-2.09-.32-2.96-1.03-1.84-.05-3.71-.19-5.45.32-.46.13-.91.3-1.35.55-.46.25-.9.53-1.33.82-.72.48-1.41.98-2.1,1.43,0,.89,0,1.64-.01,2.28.35.56.63,1.07.97,1.55.53.74,1.07,1.45,1.75,2.07.38.34.81.66,1.3.93.53.29,1.03.63,1.52,1Z" fill="#58595b"/>
      <path d="M647.84,181.09c.27-.76.53-1.53.75-2.32.2.44.33.94.38,1.51.2-.38.33-.78.38-1.21,1.24-3.2,1.75-3.1,1.53.3.34.05.64-.05.89-.3.42-.77.75-1.57,1.02-2.42.51,1.61.46,3.22-.13,4.84.04.1.08.2.13.3.52-.52.95-1.12,1.28-1.81-.05,1.83-.6,3.45-1.66,4.84.13.31.3.36.51.15,2.46-3.03,2.63-2.83.51.6-.68.5-1.36,1.01-2.04,1.51.94-.1,1.87-.2,2.81-.3-.7.65-1.48,1.07-2.34,1.3.96,1.46,1.97,2.88,3.05,4.26l6,7.67c1.61,2.05,3.25,4.16,4.86,6.3,1.16-1.8,2.88-2.97,3.14-2.19.21.64.3,3.64.12,6.64.95,1.34,1.88,2.7,2.77,4.06.44.32.9.63,1.4.84-.21.12-.34-.09-.51.03-.03.02.02.07.04.09,1.21.88,2,2.22,2.87,3.48.9,1.3,1.61,2.75,2.22,4.26,1.17,2.9,1.95,5.96,2.54,9.08.24-.08.47-.16.75-.1l-.36.32c.5-.06.97-.03,1.46.09l-10.28-66.65-30.72,5.45c.8,1.18,1.63,2.33,2.56,3.45,1.55,1.87,2.86,3.83,4.04,5.92Z" fill="#58595b"/>
      <path d="M597.33,252.57c-.19-.7-.37-1.41-.54-2.11-1.57.51-3.24.68-4.97.61-.04,0-.08-.03-.13-.06-.04.22-.06.44-.1.66-.63,1.32-1.23,2.65-1.81,3.99h5.25c.02-.76.23-1.48.64-2.17.95.91,1.51.61,1.66-.91Z" fill="#808285"/>
      <path d="M646.17,249.55c-.01-.18-.02-.36-.03-.54-.74-.76-1.45-1.54-2.13-2.36-.09.76-.4,1.43-.89,2.01l-1.66,1.97c-.16.19-.3.39-.45.59-.03.21-.07.42-.11.62.22.03.43.06.65.09,1.52.26,2.99.3,4.52.16l.63-.06c.26-.62.09-1.44-.52-2.48Z" fill="#808285"/>
      <path d="M592.33,249.09c-.08-.03-.24-.01-.33.05l-.09.07c-.03.35-.06.7-.11,1.06.49-.46.77-1.08.53-1.18Z" fill="#808285"/>
      <path d="M624.62,247.81c-.13.28-.24.55-.38.83-1.64,1.75-2.71,3.13-3.25,4.19l.35,1.77c.03.16.07.35.11.54.07.02.14.04.22.05.05-.14.1-.27.15-.4.53-1.34,1.76-2.14,3.17-2.1.91.03,1.54-.42,1.77-1.39.56-2.28.44-4.6.15-6.95-.09-.73-.18-1.44-.28-2.16-.48,1.92-1.15,3.79-2,5.61Z" fill="#808285"/>
      <path d="M582.54,254.09c.05-1.69.73-2.24,2.04-1.66.13-.15.26-.3.38-.45-.09-1.21-.16-2.43-.22-3.64l-.09-.17c-.1-.18-.06-.51.03-.67,0-.01.02-.02.03-.03-.1-2.64-.11-5.28-.04-7.93-.16.11-.3.23-.47.34-.47.29-1.03.34-1.14.05-.04-.09-.02-.33.04-.42.74-1.32,1.34-2.89,1.7-4.4.16-.67.37-1.31.63-1.92.35-2.22.74-4.42,1.18-6.61-.06-.36.03-.66.26-.91.16.04.24.14.26.3.59,1.19,1.07,2.42,1.45,3.68.14-.07.28-.14.43-.2l1.67-.49c.99-3.18,3.94-7.38,6.03-9.78l1.41-1.62c5.22-5.73,11.41-10,18.32-12.37-.83-1.7-1.53-3.42-1.96-5.14-.04-.15-.08-.16-.14-.08l-.2.25c-.52-.84-.56-1.73-.55-2.75-.05-.01-.14-.04-.14-.04-.13.12-.18.18-.22.14l-.17-.17c-.18-1.02-.15-2.01-.03-3.1-.03-.08-.07-.17-.12-.18l-.28-.04c.01-1.13.24-2.16.56-3.22.65-1.79.94-3.6,1.21-5.5l.38-2.65c.05-.34-.2-.62-.35-.83l-.03-.18c-3.5.66-6.97,1.45-10.42,2.38-2.47.2-4.93.2-7.4,0-5.13-1.33-10.32-1.73-15.56-1.21-.95-.34-1.89-.75-2.81-1.21-4.15-4.01-7.67-8.7-10.58-14.07-.79-1.2-1.77-2.1-2.93-2.72-.33-.97-.33-1.93,0-2.87,2.48-.49,4.65.27,6.5,2.27.81,1.52,1.62,3.04,2.42,4.54.15-.06.28-.16.38-.3.04-2.42-.51-4.63-1.66-6.65.08-.1.17-.2.26-.3,2.78,1.17,4.86,3.28,6.25,6.35.21.46.51.61.89.45.28-.62.32-1.28.13-1.97-.55-1.51-1.23-2.92-2.04-4.23-3.3-3.78-7.26-5.29-11.86-4.54-4.5-.65-8.07,1.16-10.71,5.44-1.99.64-3.01,2.15-3.06,4.54-1.11.05-2.21,0-3.32-.15-.55-.43-1.14-.68-1.79-.76-.04.51,0,1.02.13,1.51,1.18,1.4,2.5,2.56,3.95,3.48-2.07,3.34-3.98,6.82-5.74,10.44-.15.5-.28,1-.38,1.51.1,1.09.15,2.2.13,3.33.87.83,1.77,1.69,2.68,2.57,1.31.16,2.58.06,3.83-.3.73.77,1.15,1.73,1.28,2.87.28.61.53,1.26.77,1.97,0,.32-.09.58-.26.76-.07,1.02-.32,1.98-.77,2.87.08.15.17.3.26.45.34-.31.68-.61,1.02-.91.17-1.38.43-1.48.77-.3,1.46-3.02,1.97-6.04,1.53-9.07,1.29-.29,2.52-.8,3.7-1.51.85.6,1.53,1.41,2.04,2.42,1.39,2.59,2.58,5.31,3.57,8.17,1.76,3.28,3.46,6.6,5.1,9.98.14,1.04.29,2.08.45,3.12.18,1.18.37,2.36.57,3.53.27.94.61,1.85,1.02,2.72.57.72,1.11,1.47,1.64,2.24.54.79,1.06,1.61,1.55,2.45.76.4,1.48.85,2.17,1.36,1.38,4.39,2.06,8.93,2.04,13.61.63,3.39.8,6.82.51,10.28-.12,1.39-.46,2.7-1.02,3.93-1.33,1.66-2.45,3.5-3.37,5.5h6.56c.05-.49-.03-1.01-.26-1.57Z" fill="#808285"/>
      <path d="M651.39,187.09c.68-.5,1.36-1.01,2.04-1.51,2.12-3.44,1.95-3.64-.51-.6-.21.21-.38.16-.51-.15,1.06-1.39,1.61-3.01,1.66-4.84-.33.69-.75,1.3-1.28,1.81-.04-.1-.08-.2-.13-.3.59-1.62.64-3.23.13-4.84-.27.85-.6,1.65-1.02,2.42-.26.25-.56.35-.89.3.22-3.41-.29-3.51-1.53-.3-.05.43-.18.83-.38,1.21-.05-.57-.18-1.07-.38-1.51-.23.79-.48,1.56-.75,2.32.35.62.7,1.24,1.03,1.89.92,1.77,1.92,3.46,3,5.1.85-.22,1.63-.65,2.34-1.3-.94.1-1.87.2-2.81.3Z" fill="#808285"/>
      <path d="M621.44,255.15c-.04-.19-.07-.38-.11-.54l-.35-1.77-.14-.71-.11-.57c-.08-.41-.18-.86-.12-1.3.14-1.07.26-2.13.37-3.19.2-1.91.36-3.83.45-5.8l1.08-.19c.77-.13,1.54-.16,2.32-.03l1.51.25.16.03c-.36-2.62-.76-5.2-1.33-7.82l-2.01-9.23-1.44-6.09-1.3-6.05c-1.35-2.16-2.81-4.53-4-6.98-6.9,2.37-13.1,6.64-18.32,12.37l-1.41,1.62c-2.09,2.4-5.03,6.6-6.03,9.78l-1.67.49c-.15.05-.28.13-.43.2-1.45.68-2.47,1.96-3.14,3.54-.26.6-.46,1.25-.63,1.92-.37,1.51-.96,3.09-1.7,4.4-.05.1-.07.33-.04.42.11.29.67.24,1.14-.05.16-.1.31-.23.47-.34.04-.03.09-.06.13-.09.55-.4,1.08-.84,1.58-1.34l1.85-1.85.27,3.38c.1,1.2.01,2.26-.43,3.35-.42,1.04-.86,2.04-1.39,2.99-.14.25-.28.49-.43.73-.27.42-.52.57-1.01.51-.15-.02-.42.12-.52.26,0,.01-.02.02-.03.03-.1.16-.13.49-.03.67l.09.17.64,1.18s.02.03.03.04c.59.91,1.37,1.62,2.32,1.95.46.16.88.09,1.28-.2l2.9-2.09.09-.07c.09-.06.25-.08.33-.05.24.1-.04.72-.53,1.18-.03.03-.07.07-.1.1-.11.09-.21.31-.18.44.01.06.09.15.17.21.05.03.09.06.13.06,1.73.07,3.4-.09,4.97-.61,1.56-.51,3.03-1.37,4.35-2.67.7-.69,1.28-1.45,1.89-2.23.29-.37.6-.57,1.04-.62.78-.08,1.26-.97,2.06-.9.17,1.26.31,2.48.18,3.73-.08.76-.24,1.48-.07,2.23.17.77.16,1.52-.02,2.28-.27,1.15-.56,2.28-.96,3.37h4.18c0-3.87,1.47-4.63,2.08-6.15l.82-2.06,1.23-2.36,1.03,2.17,1.01,2.28c.25.58.52,1.1.89,1.59.24.32.43.68.54,1.09.04.14.07.29.11.43.21.92.33,2.01.26,3.01h4.09s.01-.04.02-.06c-.03-.15-.05-.3-.08-.45Z" fill="#a7a9ac"/>
      <path d="M641.45,250.63l1.66-1.97c.49-.58.8-1.25.89-2.01-.4-.48-.8-.97-1.17-1.49-3.06-4.2-5.16-9.55-3.3-14.68-.47-.6-.96-1.08-1.52-1.54l-4.15-3.48-.24,9.48c-.06,2.3,0,4.54.15,6.79.73-.12,1.44-.28,2.12-.52.24,1.19.55,2.35.99,3.48.37.95.55,1.91.41,2.97,0,.04-.01.07-.02.11-.15,1.09-.4,2.15-.83,3.13-.05.11-.09.22-.14.32l-1.42,2.82c.2-.29.42-.56.67-.81,1.33-1.34,3.17-1.59,5-1.41.14-.2.3-.39.45-.59.15-.2.29-.4.45-.59Z" fill="#a7a9ac"/>
      <path d="M657.12,255.32c.58.06,1.16.19,1.74.29.14.02.27.06.41-.01,0-.02,0-.05-.02-.05-.17-.07-.34-.16-.51-.2-.2-.04-.09-.22-.13-.31-.15-.27-.17-.26-.87-.34.01-.19.21-.2.26-.38-.04-.17-.2-.03-.28-.13.05-.07.11-.13.16-.2-.01-.02-.02-.04-.03-.04-.21,0-.42,0-.63,0-.04-.22.18-.26.16-.45-.15-.17-.29.13-.45.04-.03-.16.22-.17.12-.39-.14-.03-.3-.02-.47.06,0-.22.21-.35.15-.61-.3.19-.46-.03-.47-.33-.02-.38-.19.02-.24-.11.06-.13.12-.26.2-.42-.17-.12-.42.13-.49-.11-.06-.18.2-.34.16-.58-.15,0-.25.13-.39.22-.03-.25.21-.36.17-.6-.17.01-.29.16-.55.31.3-.42.23-.78.23-1.16-.12.1-.21.19-.32.29-.08-.22.12-.32.13-.5-.13-.12-.17.18-.29.1.02-.22.15-.41.12-.64-.14-.05-.16.18-.29.16.03-.19.06-.36.09-.53-.15-.06-.14.15-.26.15,0-.16.1-.35-.09-.5-.38.97-.5,2.03-.7,3.04-.29,1.41-.55,2.83-.81,4.24h2.48c.53-.28,1.12-.41,1.75-.34Z" fill="#231f20"/>
      <path d="M647.95,251.97s0-.04,0-.06l-1.27.12-.63.06c-1.53.15-3,.11-4.52-.16-.22-.04-.43-.07-.65-.09-.11-.01-.23-.03-.34-.04-1.83-.18-3.67.07-5,1.41-.25.25-.47.52-.67.81-.11.16-.22.33-.31.5-.16.29-.3.59-.42.9-.03.07-.06.14-.08.22h13.32c.03-.07.07-.13.09-.21.36-1.12.43-2.29.47-3.47Z" fill="#231f20"/>
      <path d="M695.84,223.95c-.91.45-1.84-.28-1.83-1.44,0-.25.02-.51.05-.76-1.23-.32-2.5-.39-3.76-.21-.03.46,0,.94.08,1.42.07.46.18.89.31,1.31.22.08.44.17.66.26,2.12.86,4,2.19,5.42,4.11,2.09,2.83,2.99,6.31,2.68,9.73.15.46.28.92.39,1.4,1.13,5.01.43,9.66-2.25,13.81-.08.12-.16.22-.24.34.07-.06.15-.11.22-.16.45-.35.89-.72,1.3-1.11,5.7-5.41,7.56-14.13,4.6-21.57-1.25-3.13-3.23-5.85-5.93-7.71-.19-.13-.39-.25-.59-.37-.3.4-.66.73-1.12.96Z" fill="#231f20"/>
      <path d="M633.14,249.55c.08-.5.37-.67.73-.93.03-.02.06-.06.09-.08.59-.52.64-1.51.46-2.26l-.43-1.8c-.09-.93-.16-1.84-.22-2.76-.15-2.25-.21-4.49-.15-6.79l.24-9.48,4.15,3.48c.55.46,1.04.95,1.52,1.54-1.85,5.13.24,10.48,3.3,14.68.38.52.77,1.01,1.17,1.49.68.82,1.39,1.6,2.13,2.36.6.61,1.21,1.2,1.85,1.79.05-2.45,0-4.91-.13-7.36-.13-2.5-.38-4.98-1.14-7.34-.19-.58-.46-1.12-.72-1.66-.27-.55-.58-1.08-.88-1.61-.57-1.02-1.15-2.03-1.72-3.06-.08-.15-.18-.3-.19-.5,0-.12.02-.27-.2-.33-.13-.04-.26-.41-.26-.7,0-.14-.01-.14-.2-.2-.01,0-.04.04-.04,0,.12-.57-.46-.79-.46-1.33,0-.27-.25-.54-.4-.81-.13-.23-.03-.5-.12-.73-.04-.11.07-.38-.22-.22-.08.05-.12-.25-.12-.38.02-.48-.15-.96-.3-1.31-.19-.43-.05-.89-.2-1.17-.21-.38.05-.83-.26-1.12-.04-.04-.02-.19,0-.28.12-.75.05-1.5-.06-2.24-.03-.18.02-.4.09-.57.35-.87.46-1.82.65-2.73.21-1.04.64-1.99.8-3.02.12-.74.55-1.36.5-2.14,0-.03.01-.07.03-.09.37-.71.25-1.58.58-2.3.08-.18.1-.41.11-.62.04-.86-.46-1.38-1.19-1.3-.72.08-1.43.26-2.16.29-.68.02-1.31-.07-1.81-.68-.19-.23-.22-.06-.28.14-.5,1.72-.98,3.44-1.15,5.25.03-1.98.55-3.83,1.01-5.72-1.66,2.22-2.88,4.76-4.01,7.36.28-1.02.69-1.98,1.14-2.91.54-1.12,1.12-2.21,1.72-3.3.19-.35.41-.66.65-.95.12-.15.36-.31.2-.55-.16-.24-.27-.2-.56.07.07-.14.14-.26.17-.38.04-.16.09-.37-.17-.27-.11.04-.24.02-.26-.07-.02-.09.12-.02.17-.07.09-.1.02-.18-.03-.25-.38-.59-.6-1.29-.9-1.94-.21-.45-.18-.86.09-1.27.42-.65.87-1.28,1.24-1.97.46-.86.48-1.83.57-2.78.06-.55.2-1.05.45-1.51.08-.16.24-.3.09-.52-.01-.02-.11-.08.02-.09.38-.03.41-.1.22-.51-.38-.82-.89-1.5-1.48-2.11-.29-.3-.61-.56-.98-.89,1.2.73,1.99,1.82,2.67,3.05-.08-.63-.36-1.16-.55-1.73.32.35.45.84.65,1.28.14.31.1.24.35.08.82-.54,1.46-1.42,2.38-1.77.25-.1.49-.25.72-.39.92-.54,1.22-1.24,1.05-2.44-.14-.94-.45-1.82-.68-2.73-.06-.24-.19-.47-.09-.77.42.3.68.78,1.1,1.16.06-.56-.14-1.01-.17-1.48-.02-.28-.19-.67.02-.82.21-.15.45.16.64.34.78.75,1.5,1.57,2.2,2.41,1.38,1.64,2.9,3.05,4.69,4.05.45.25.93.54,1.3.94.74.8,1.52,1.58,2.11,2.51.32.51.57,1.16.81,1.78.28.76.54,1.53.77,2.3.47,1.54.78,3.13,1.1,4.72.34,1.66.88,3.19,1.85,4.5.58.78.97,1.72,1.34,2.65.23.56.52.97.87,1.28-.08-.57-.13-1.17-.12-1.81.04-2.91,2.51-6.04,3.08-5.08.24.4.65,1.93,1.04,3.81.19-.55.46-1.07.77-1.56-1.62-2.14-3.25-4.25-4.86-6.3l-6-7.67c-1.09-1.39-2.1-2.81-3.05-4.26-1.07-1.64-2.07-3.33-3-5.1-.33-.64-.68-1.27-1.03-1.89-1.19-2.09-2.5-4.05-4.04-5.92-.93-1.12-1.76-2.27-2.56-3.45-.56-.83-1.11-1.67-1.66-2.55-2.29-3.65-4.73-7.1-7.27-10.56-2.44-3.33-5.5-6.79-8.84-9.07l-2.06-2.56c-1.11-1.05-2.37-1.72-3.88-1.85-1.11-.1-2.26-.05-3.36.23l-4.71,1.21c-1.5.39-2.79,1.24-3.75,2.45l-1.48,1.87c-.73.93-1.2,1.79-.88,3.04.16.61,0,1.32-.52,1.65l-1.95,1.25-3.52,1.87-1.48.56c-.71.43-.93,1.14-.76,1.95.18.82.84,1.39,1.1,2.15l.93,2.69c.46,1.02,1.17,1.82,2.19,2.21.31,1.13,1.15,1.88,2.24,2.15.96.2,1.93.16,2.92-.05,1.06.48,2.16.4,3.03-.45.94-.11,1.88-.14,2.79.2.69.26,1.34.95,1.48,1.73.3,1.61.67,3.1,1.28,4.6.45,1.13.75,2.27.97,3.47l.31,1.74.03.18c.15.22.4.49.35.83l-.38,2.65c-.27,1.9-.56,3.7-1.21,5.5-.32,1.07-.55,2.1-.56,3.22l.28.04s.08.1.12.18c-.12,1.09-.15,2.08.03,3.1l.17.17s.09-.02.22-.14c0,0,.1.03.14.04,0,1.03.04,1.91.55,2.75l.2-.25c.06-.08.1-.07.14.08.43,1.72,1.13,3.45,1.96,5.14,1.19,2.44,2.65,4.82,4,6.98l1.3,6.05,1.44,6.09,2.01,9.23c.57,2.62.97,5.2,1.33,7.82.04.29.08.58.12.87.09.72.19,1.43.28,2.16.3,2.36.41,4.67-.15,6.95-.24.97-.86,1.41-1.77,1.39-1.41-.04-2.63.75-3.17,2.1-.05.13-.1.26-.15.4-.05.13-.1.26-.14.4,0,.02-.01.04-.02.06h10.67c.12-.63.2-1.31.31-1.98l.67-4.12ZM636.89,206.12c-.63,1.78-1.25,3.56-1.84,5.36.46-1.86.94-3.71,1.84-5.36Z" fill="#231f20"/>
      <path d="M669.76,213.62c.76.24,1.4.74,2.06,1.21-.89-1.37-1.82-2.72-2.77-4.06-.04.75-.1,1.5-.18,2.21.26.16.49.37.74.55.05.03.09.08.15.09Z" fill="#231f20"/>
      <path d="M685.94,217.82c-.08.18-.17.36-.27.53-.22.37-.25.89-.32,1.36-.1.68-.14,1.37-.2,2.12-.05-.12-.07-.21-.11-.22-.12-.03-.08.09-.08.16.04.59.05,1.18.12,1.76.32,2.68,1.48,4.9,2.86,7,1.29,1.98,2.82,3.71,4.21,5.59,1.25,1.7,2.16,3.54,2.53,5.63.15.83.22,1.7.18,2.62-.05,1.3-.29,2.49-.69,3.56.18.29.34.6.48.92l-.27-.16c.42.74.67,1.51.87,2.34.24,1,.38,1.99.33,3.03l-.16-.3c.05.61.02,1.21-.12,1.8,0,.04-.02.07-.03.11h.64c.53-.52,1.01-1.09,1.46-1.74.08-.11.16-.22.24-.34,2.68-4.15,3.38-8.8,2.25-13.81-.11-.48-.24-.95-.39-1.4-.82-2.54-2.18-4.71-3.75-6.74-.87-1.13-1.77-2.23-2.65-3.34-.23-.29-.46-.57-.68-.86-.72-.95-1.31-1.98-1.68-3.15-.13-.42-.24-.86-.31-1.31-.07-.48-.11-.96-.08-1.42.04-.7.23-1.37.64-1.99.51-.76,1.21-1.05,2.01-.87.63.14.95.7,1.11,1.39.09.38.11.77.06,1.17-.02.17-.04.34-.06.51-.03.25-.05.51-.05.76-.01,1.16.92,1.89,1.83,1.44.46-.23.82-.56,1.12-.96.41-.54.69-1.21.92-1.91.18-.56.13-1.19.05-1.8-.01-.1-.05-.23-.01-.29.28-.4.02-.71-.1-1.04-.25-.65-.53-1.28-.93-1.85.18-.03.22.21.47.2-.7-.67-.94-1.68-1.79-2.08-.58-.27-1.15-.55-1.75-.74.06-.19.21-.04.29-.17-.86-.41-1.77-.26-2.64-.31-.75-.05-1.5.39-2.18.77-.45.26-.86.59-1.25.97-.36.34-.7.72-1.04,1.08-.49.53-.73,1.29-1.05,1.98Z" fill="#58595b"/>
      <path d="M675.62,219.27c-.87-1.26-1.66-2.6-2.87-3.48-.02-.02-.07-.07-.04-.09.17-.12.3.1.51-.03-.5-.22-.96-.53-1.4-.84-.66-.48-1.31-.97-2.06-1.21-.05-.02-.1-.06-.15-.09-.25-.18-.49-.39-.74-.55-.13,1.14-.3,2.19-.53,2.99-.62,2.11.2,5.15.84,7.02.04.08.07.15.11.23,1.1,2.51,1.29,5.28,1.71,5.93.67,1.05,3.25,4.22,5.31,6.52.6-.64,1.3-1.17,2.03-1.77-.03-.44.18-.94.25-.74l.1.29c.17-.33.35-.59.66-.79.04-.03.14-.04.16-.01l-.13.45c.33-.19.63-.35.98-.47,0,0,.01,0,.02,0-.59-3.12-1.36-6.18-2.54-9.08-.61-1.51-1.32-2.96-2.22-4.26Z" fill="#58595b"/>
      <path d="M664.41,253.13c-.82-2.27,1.16-4.37,1.53-6.12s-.81-1.3-1.21-.46c-.4.84-.85,2.96-2.12,2.83-1.27-.13-2.22-2.95-1.56-4.34.66-1.38,1.5-4.18,1.32-5.06-.18-.88-.36-2.88.25-5.12.6-2.24-3.8-2.71-6.05-4.76-1.97-1.81-2.05-5.43-.95-7.04,1.2-1.75,2.17-2.76,3.25-3.38.75-.43,1.56-.66,2.52-.79.66-1.03,1.02-2.47.63-4.49,0,0-.71-1.44-1-3.45-.35-.31-.64-.72-.87-1.28-.38-.93-.76-1.87-1.34-2.65-.98-1.31-1.52-2.83-1.85-4.5-.32-1.59-.63-3.18-1.1-4.72-.24-.77-.49-1.54-.77-2.3-.23-.62-.48-1.27-.81-1.78-.6-.93-1.38-1.71-2.11-2.51-.37-.4-.85-.69-1.3-.94-1.79-1-3.31-2.41-4.69-4.05-.7-.84-1.43-1.66-2.2-2.41-.19-.18-.43-.49-.64-.34-.21.15-.04.53-.02.82.03.47.23.92.17,1.48-.42-.38-.68-.87-1.1-1.16-.1.3.03.54.09.77.23.91.54,1.79.68,2.73.17,1.2-.13,1.91-1.05,2.44-.24.14-.47.29-.72.39-.92.35-1.56,1.23-2.38,1.77-.25.17-.2.24-.35-.08-.2-.44-.33-.93-.65-1.28.2.57.47,1.1.55,1.73-.69-1.23-1.48-2.31-2.67-3.05.37.33.69.59.98.89.59.61,1.11,1.29,1.48,2.11.19.41.16.48-.22.51-.13,0-.03.07-.02.09.15.22,0,.36-.09.52-.25.46-.39.96-.45,1.51-.1.95-.11,1.93-.57,2.78-.37.69-.83,1.32-1.24,1.97-.27.42-.3.82-.09,1.27.3.65.52,1.34.9,1.94.05.07.12.15.03.25-.05.06-.19-.02-.17.07.02.09.15.11.26.07.26-.1.21.11.17.27-.04.13-.11.24-.17.38.29-.27.41-.31.56-.07.16.24-.08.4-.2.55-.24.3-.46.61-.65.95-.6,1.08-1.18,2.17-1.72,3.3-.45.93-.85,1.89-1.14,2.91,1.13-2.6,2.35-5.14,4.01-7.36-.46,1.88-.98,3.74-1.01,5.72.17-1.81.65-3.54,1.15-5.25.06-.21.1-.38.28-.14.5.62,1.13.71,1.81.68.73-.03,1.44-.21,2.16-.29.73-.08,1.22.44,1.19,1.3,0,.21-.02.44-.11.62-.33.72-.21,1.6-.58,2.3-.01.03-.03.06-.03.09.05.78-.38,1.4-.5,2.14-.16,1.02-.59,1.98-.8,3.02-.18.91-.3,1.86-.65,2.73-.07.17-.12.39-.09.57.11.75.18,1.49.06,2.24-.01.09-.03.24,0,.28.31.3.05.75.26,1.12.16.28.02.74.2,1.17.15.35.33.83.3,1.31,0,.13.04.43.12.38.29-.17.18.11.22.22.09.23-.01.5.12.73.15.26.4.54.4.81,0,.54.59.77.46,1.33,0,.04.02,0,.04,0,.19.06.2.06.2.2,0,.29.13.67.26.7.22.06.19.21.2.33,0,.21.11.35.19.5.57,1.03,1.15,2.04,1.72,3.06.3.53.61,1.06.88,1.61.27.54.54,1.08.72,1.66.76,2.36,1.01,4.84,1.14,7.34.13,2.45.19,4.9.13,7.36,0,.37-.01.74-.03,1.11,0,.02,0,.04,0,.06-.04,1.18-.11,2.35-.47,3.47-.03.08-.06.14-.09.21h5.51c.26-1.42.53-2.83.81-4.24.21-1.02.32-2.07.7-3.04.19.15.08.34.09.5.11,0,.1-.21.26-.15-.03.17-.06.34-.09.53.13.01.15-.21.29-.16.03.23-.09.42-.12.64.12.08.16-.22.29-.1,0,.18-.21.28-.13.5.11-.1.21-.19.32-.29,0,.39.07.75-.23,1.16.26-.16.38-.3.55-.31.04.25-.19.36-.17.6.15-.09.24-.22.39-.22.04.24-.22.4-.16.58.08.25.32,0,.49.11-.07.15-.14.29-.2.42.06.13.23-.27.24.11.01.3.17.52.47.33.06.26-.15.39-.15.61.18-.08.33-.09.47-.06.1.21-.15.23-.12.39.16.09.3-.22.45-.04.02.19-.2.23-.16.45.21,0,.42,0,.63,0,0,0,.02.02.03.04-.05.07-.11.13-.16.2.08.09.24-.04.28.13-.05.17-.25.19-.26.38.71.08.73.07.87.34.05.08-.07.27.13.31.18.04.34.13.51.2,0,0,.01.03.02.05-.14.07-.27.04-.41.01-.58-.11-1.15-.23-1.74-.29-.62-.07-1.22.06-1.75.34h11.32c-1.05-.78-1.98-1.67-2.29-2.52Z" fill="#58595b"/>
      <path d="M636.89,206.12c-.9,1.65-1.38,3.5-1.84,5.36.59-1.8,1.21-3.58,1.84-5.36Z" fill="#58595b"/>
      <path d="M683.16,254.75l-.05.24c-.33-.65-.31-1.32-.22-2.01-.22-.55-.41-1.09-.59-1.66l-.46-1.45c-.15.1-.18.25-.24.41-.08.22-.09.41-.02.64.03.1,0,.24-.09.29-.09.04-.19.01-.33-.06l.08.41c.01.05-.03.15-.08.17-.3.12-1.1-.77-.83-1.98.09-.41.31-.73.55-1.08l-.84.41c-.07.04-.14.1-.16.17l-.17.5c-.06.16.2.54-.04.63-.08.03-.21-.03-.29-.07.02.11.08.3-.02.37-.12.07-.25-.06-.32-.15-.25-.31-.36-.67-.39-1.06-.05-.54.1-1.05.46-1.47l.79-.82c.07-.07.12-.18.14-.28-.38-.76-.58-1.56-.64-2.38-.07.07-.13.11-.19.08l.06-1.15c-.09.06-.14.09-.21.05.13-.53.22-1.06.25-1.6.03-.56-.17-1.04-.57-1.42-.33-.31-.74-.47-1.2-.43-.49.04-.9-.19-1.19-.58-.6-.1-.76-.65-.92-1.22-.14-.17-.24-.34-.32-.55.01-.24.08-.44.19-.65.29-.53.63-.97,1-1.37-2.07-2.3-4.64-5.47-5.31-6.52-.42-.66-.61-3.42-1.71-5.93-.03-.08-.07-.15-.11-.23-.64-1.87-1.46-4.91-.84-7.02.23-.79.4-1.84.53-2.99.08-.71.14-1.46.18-2.21.18-2.99.09-5.99-.12-6.64-.26-.78-1.99.39-3.14,2.19-.31.48-.58,1.01-.77,1.56-.38-1.88-.8-3.41-1.04-3.81-.57-.97-3.04,2.17-3.08,5.08,0,.64.04,1.25.12,1.81.29,2.01,1,3.45,1,3.45.39,2.02.03,3.46-.63,4.49-.96.13-1.77.36-2.52.79-1.08.61-2.05,1.63-3.25,3.38-1.1,1.61-1.03,5.23.95,7.04,2.24,2.05,6.65,2.52,6.05,4.76-.6,2.24-.43,4.25-.25,5.12.18.88-.66,3.68-1.32,5.06-.66,1.38.29,4.21,1.56,4.34,1.27.13,1.72-1.99,2.12-2.83.4-.84,1.58-1.29,1.21.46s-2.34,3.85-1.53,6.12c.31.85,1.24,1.74,2.29,2.52h16.82c-.14-.29-.27-.59-.37-.9Z" fill="#808285"/>
      <path d="M695.42,253.75l.16.3c.05-1.04-.09-2.03-.33-3.03-.19-.82-.45-1.59-.87-2.34l.27.16c-.14-.33-.3-.63-.48-.92-.15-.25-.32-.5-.5-.75l-1.01-1.42-.29-.4c-.78-1.1-1.63-2.13-2.54-3.13l-1.05-1.16c.14,0,.24,0,.32-.07-.38-.32-.69-.62-.93-1.04.15.05.25.1.43.06-.44-.6-.8-1.2-1.12-1.87-.24-.5-.51-.95-.88-1.38.12.02.2.04.31.02-.28-.39-.57-.7-.91-1.02l-1.05-.97c.36-.6.35-1.26-.2-1.72-.5-.41-1.16-.57-1.81-.46-.03,0-.06.02-.08.03-.15.04-.29.1-.43.18-.06.03-.12.07-.18.1-.01,0-.02,0-.03,0-.49-.11-.96-.15-1.46-.09l.36-.32c-.28-.06-.51.02-.75.1,0,0-.01,0-.02,0-.36.12-.66.29-.98.47l.13-.45s-.11-.01-.16.01c-.31.19-.48.46-.66.79l-.1-.29c-.07-.2-.29.3-.25.74-.73.6-1.43,1.14-2.03,1.77-.38.4-.72.84-1,1.37-.11.21-.18.41-.19.65.08.21.18.38.32.55.16.57.32,1.13.92,1.22.29.38.7.62,1.19.58.46-.04.87.12,1.2.43.4.38.6.86.57,1.42-.03.55-.12,1.07-.25,1.6.07.04.12,0,.21-.05l-.06,1.15c.06.03.12,0,.19-.08.06.83.26,1.62.64,2.38-.02.1-.08.21-.14.28l-.79.82c-.35.42-.51.93-.46,1.47.04.39.15.76.39,1.06.07.09.2.22.32.15.1-.06.04-.25.02-.37.09.04.21.1.29.07.24-.09-.01-.46.04-.63l.17-.5c.02-.07.09-.14.16-.17l.84-.41c-.25.35-.46.67-.55,1.08-.26,1.22.53,2.11.83,1.98.04-.02.09-.12.08-.17l-.08-.41c.14.07.24.11.33.06.1-.05.12-.19.09-.29-.08-.23-.06-.42.02-.64.06-.15.09-.31.24-.41l.46,1.45c.18.57.37,1.11.59,1.66-.09.69-.11,1.36.22,2.01l.05-.24c.1.31.22.61.37.9h11.74s.02-.07.03-.11c.14-.59.17-1.19.12-1.8Z" fill="#a7a9ac"/>
    </g>
    <g>
      <polygon points="695.9 255.65 695.26 255.65 683.52 255.65 666.7 255.65 655.38 255.65 652.9 255.65 647.39 255.65 634.06 255.65 633.96 255.65 632.16 255.65 621.5 255.65 617.41 255.65 615.26 255.65 609.44 255.65 605.26 255.65 595.03 255.65 589.78 255.65 585.7 255.65 582.8 255.65 576.23 255.65 570.86 255.65 554.3 255.65 551.25 255.65 539.77 255.65 536.5 255.65 24.44 255.65 24.44 261.72 618.72 261.72 618.72 261.72 704.88 261.72 704.88 255.65 697.86 255.65 695.9 255.65" fill="#fff"/>
      <polygon points="618.72 261.72 618.72 261.72 24.44 261.72 24.44 267.8 704.88 267.8 704.88 261.72 618.72 261.72" fill="#fff" opacity=".8"/>
      <rect x="24.44" y="267.8" width="680.43" height="6.07" fill="#fff" opacity=".6"/>
      <rect x="24.44" y="273.87" width="680.43" height="6.07" fill="#fff" opacity=".4"/>
    </g>
  </g>
</svg>