<?xml version="1.0" encoding="UTF-8"?>
<svg id="Layer_1" xmlns="http://www.w3.org/2000/svg" version="1.1" viewBox="0 0 729.32 305.15">
  <!-- Generator: Adobe Illustrator 30.3.0, SVG Export Plug-In . SVG Version: 2.1.3 Build 182)  -->
  <rect width="729.32" height="305.15" fill="#292a76"/>
  <g id="Horse">
    <path d="M609.22,177.71c-9.3,4.66-20.24,10.75-30.25,12.65-17.35,3.29-33.14,2.94-50.62,1.4l-1.68,13.04c-.81,6.25-1.44,12.29-1.42,18.59.22,3.19.54,6.24.26,9.37-.35,3.95-1.37,7.58-2,11.48-.72,4.44-.2,8.83,0,13.31.28,6.32,1.35,12.19,2.95,18.23.83,3.12.67,6.37-1.03,9.09-.56.89-2.06,1.92-3,2.01-1.75.17-2.75.65-3.94,1.98-.68.76-2.1,2.07-1.84,3.24.44,1.94.41,3.31-.49,5.11-.51,1.02-.99,2.52-2.2,2.97-3,1.11-6.09,1.2-9.27,1.17-1.53-.02-3.14.18-4.52-.61-.64-.37-.23-1.89.12-2.46l4.75-7.62c.48-.77.82-2.01,1.5-2.57l2.86-2.36c1.59-1.76,3.13-3.99,3.67-6.35l1.2-5.24c.61-2.66.92-5.22.77-8-.33-6.36-1.16-12.52-2.38-18.74l-1.87-5.59c-1.33-3.98-2-8.07-3-12.18l-.9-6.05c-2.03-7.04-4.32-13.8-6.78-20.68l-4.88-13.64c-.79-.44-2.06-.61-2.95-.45-.66,1.47-1.35,2.45-2.4,3.46l-4.33,4.13-5.62,5.58-15.4,17.02c-1.8,3.77-3.76,7.23-6.83,9.89l-3.94,3.42c-3.71,4.31-6.14,9.4-8.34,14.65-1.49,3.57-2.22,6.97-2.41,10.88-.11,2.38-1.89,6.98-3.97,7.14-1.25.1-2.28-.03-3.21.98-1.41,1.53-2.66,3.75-2.5,6.02.11,1.59,1.08,3.33.44,4.87-.78,1.87-1.45,3.66-1.65,5.76-.11,1.17-.53,2.19-1.49,2.92-3.57,2.72-12.89,8-15.02,5.06-.46-.64-.23-2.22.11-3.05l5.16-12.9c.68-1.69,1.06-3.02,2.18-4.5l2.52-4.85c1.46-2.82,2.83-5.48,3.42-8.65.51-2.7.94-5.67,2.63-7.83l3.14-4.01c2.94-5.09,5.67-10.18,7.83-15.72.6-1.52.29-3.42.86-4.94l3.82-10.18c.59-1.58,1.9-2.75,2.61-4.22l2.87-5.97,10.28-21.51c.3-.62.61-1.48.37-2.08-7.4-5.38-10.9-12.38-9.44-21.8.86-5.6,1.93-10.98,3.38-16.46,1.74-6.59,2.44-12.95,1.96-19.85-.78-11.14-3.31-21.91-7.24-32.3-.81-2.14-1.74-4.05-2.87-6.02-3.15,6.06-6.56,8.43-13.13,9.86-2.79,4.28-5.91,8.29-9.39,12.09-1.37,1.49-1.97,2.78-2.09,4.9-.1,1.8-.27,4.21-1.39,5.65-1.6,2.05-4.27,2.86-6.66,3.04-1.42.11-2.39-1.02-2.6-2.38-.95,1-1.68,1.64-2.78,1.92-2.47.63-5.23-.03-6.58-2.42-.45-.8-.61-2.07-.8-3.01-.42-2.03-1.05-3.74-1.81-5.69-.61-1.58-.93-3.98-.24-5.59,1.19-2.75,2.21-5.2,2.96-8.1,1.67-6.42,3.31-12.71,4.03-19.35l.36-3.34c.17-1.6-.24-2.98-1-4.36-2.58-4.66-1.1-6.88.96-11.13,2-4.12,2.31-9.72,4.24-14.47-2.07-1.77-4.29-3.36-5.86-5.56-2.38-3.35-3.99-6.94-4.27-11.1-.02-.37.22-1.11.48-1.28.94-.63,1.86,1.32,4.27,2.95l7.6,5.14c-2.17-4.69-2.98-9.19-2.64-14.13l.72-.86c.16-.19.82-.01.99.21,1.09,1.43,2.4,3.09,3.66,4.48,3.05,3.36,5.39,7.1,6.87,11.43,1.48.86,2.65.1,4.02-.46,3.51-1.43,7.26-1.85,11.09-2.09,6.82-.42,13.41.58,20.12,2.24,19.81,4.89,36.3,14.99,51.54,28.78,4.82,4.36,9.37,8.69,13.84,13.41l7.21,7.6c5.24,2.19,10.45,4.12,16.05,5.23,15.01,2.97,31.99.73,46.83-3.06l16.97-4.34c9.95-2.54,20.51-2.72,30.06,1.33,6.95,2.95,13.31,6.77,19.57,11.04l5.36,3.65c2.17,1.48,10.74-2.5,21.44.85,15.22,4.77,23.86,21.38,23.28,37.47-.13,3.63-.58,7-1.48,10.45l-4.44,17c-4.37,16.72-5.11,35.39,1.55,51.47,1.74,4.42,4.07,8.24,7.1,11.81.07.27.21.75.07.87l-.68.61c-3.98-.29-7.58-1.55-11.01-3.63-4.7-2.73-8.68-6.16-12.09-10.53-9.95-12.76-10.88-31-6.72-46.5l4.57-14.96c2.14-6.99,3.66-13.3,2.99-20.78-.73-8.17-5.14-17.25-13.37-18.85-1.17-.23-2.3-.23-3.29.16,1.96,6.42,3.38,12.46,4.04,19,.63,6.25.14,12.22-.64,18.43l-2.16,17.15c-.57,4.53.16,8.96.76,13.53l3.18,16.06c.69,3.48,1.94,6.72,3.82,9.65l3.96,6.15c1.37,3.03,1.4,6.53,1.75,9.83l1.35,12.98.51,3.99c1.27,5.55,2.8,10.88,4.7,16.21l3.31,7.43c2.99,6.72,8.38,8.38,6.48,16.06-.23.93-1.51,1.12-1.92,1.66-2.12,2.76-1.65,6.67.55,9.19,1.89,2.15.17,3.48,1.06,7.31.21.91.47,2.9-.49,3.57-3.23,2.25-7.26,3.19-11.06,2.84-4.28-.39-1.14-5.33-1.35-11.29-.06-1.83.13-3.01.7-4.82.89-2.84.79-6.64-.5-9.4-1.45-3.1-2.62-5.91-3.07-9.36-.88-6.84-6.3-20.65-9.42-27.63-1.52-3.39-6.82-7.35-9.85-18.41-.96-3.52-2.09-6.73-3.8-9.94l-9.26-17.34c-2.11-3.96-12.17-18.48-16.08-15.74-2.64,6.45-1.05,16.63.4,23.89.97,4.87,2.51,9.31,4.8,13.66,1.18,2.24,1.78,4.91,1.03,7.47l-4.87,16.55-8.93,36.8-1.24,5.93c-.79,2.04-2.26,3.66-4.33,4.24-1.91-.43-3.54.44-4.79,1.91-3.51,3.07-.82,5.55-1.74,7.3l-2.16,4.14c-.28.53-1.49.84-2.06.98h-12.82s-1.27-.64-1.27-.64c-.35-.18-.28-1.45-.02-1.86l5.47-8.62c1.1-1.73,2.1-2.61,3.85-3.68,2.29-1.4,4.53-4,5.42-6.63.67-1.98,1.01-3.75,2.06-5.51,1.27-2.12,2.23-4.27,2.92-6.71,2.47-8.81,4.23-17.62,5.26-26.74.41-3.65.26-7.08-.79-10.58-.85-2.84-1.45-5.64-1.88-8.58s-1.45-5.56-2.9-8.1l-4.6-8.03c-2.16-4.87-3.9-9.72-5.46-14.84l-4.39-13.18Z" fill="#343632"/>
  </g>
  <path id="Cow" d="M670.83,263.85c.34-.31.58-.52,1.04-.94h2.38c-.07-.68.09-1.31-.19-1.58-2.04-1.96-2.57-4.32-2.45-6.88,0-.2.08-.44,0-.59-2.19-3.68-.93-7.66-1.25-11.5-.07-.84.29-1.69-.5-2.53-.39-.4-.38-1.46-.07-2,1.09-1.88.37-3.86.66-5.76.25-1.61-.71-3.37.67-4.84-.19-1.68.55-3.13,1.16-4.66.81-2.03-.16-4.04-1.35-5.62-1.57-2.07-2.02-4.35-2.28-6.63-.3-2.67-.05-5.39-.02-8.08,0-.66.26-1.27.47-1.91.73-2.25,1.31-4.59,1.46-6.93.08-1.29.69-2.39.8-3.64.1-1.13,0-2.2.53-3.39.73-1.63.56-3.58.83-5.39.24-1.6.43-3.22.85-4.78.49-1.84,1.01-3.64,1.24-5.54.22-1.86.41-3.76,1.13-5.56.11-.26.16-.55.17-.83.07-2.03-.27-4.1.7-6.04-.02-5.02,1.14-9.98.77-15.03-.15-2.02-1.65-4.72-3.57-6.14-.75-.55-1.34-1.28-1.63-1.57-2.88-.85-5.22-1.55-7.74-2.3-2.01-2.98-4.83-5.19-9.22-5.23-.82,0-1.75.34-2.44-.47-.14-.16-.75-.24-.89-.11-1.49,1.26-3.66-.16-5.12,1.11-2.32-.07-4.63.31-6.9-.76-2.3-1.07-4.85-1.84-7.49-1.64-1.83.14-3.74.48-5.38,1.17-2.95,1.24-6.16,1.43-9.18,2.3-4.04,1.17-8.17,1.18-12.35,1.13-9.36-.11-18.72-.21-28.07-.14-3.35.03-6.46-.78-9.54-1.64-1.29-.36-2.88.36-3.89-.88-2.22-.21-4.44-.42-6.66-.64-.83-.08-1.58-.17-2.42-.49-1.5-.57-3.29-.52-4.95-.76-1.66-.24-3.31-.51-5.1-.79-1.02-.95-2.45-1.03-3.98-1.09-2.88-.12-5.87-.05-8.61-.72-2.58-.64-5.32-.62-7.82-1.68-.9-.38-2.16-.07-3.19-.08-.83-.76-1.62-1.46-2.38-2.19-1.74-1.67-4.05-2.24-6.39-2.63-2.64-.44-4.81.47-6.38,2.33h-2.03c-.46-.46-1.3-.94-1.56-1.61-.28-.73-.61-1.17-1.37-1.42-.77-.25-1.52-.54-2.95-1.05-.85-1.12-2.36-2.65-3.27-4.44-.98-1.92-2.77-2.98-4.5-3.9-1.99-1.05-4.14-1.96-6.31-2.78-2.53-.95-4.89-.62-7.03.19-2.5.94-4.96,2.16-6.53,4.47-1.79,2.63-3.96,5.02-7.38,6.09-1.66,2.28-4.94,2.66-6.79,4.98-.65-.51-1.22-.92-1.75-1.38-.72-.62-1.44-1.24-2.08-1.92-.57-.6-1.4-.77-1.95-1.6-.72-1.08-2.77-.42-3.92-1.36-3.08-.08-6.22-.39-9.01,1.15-1.62.89-3.09,2.01-4.54,2.98l-.02,3.02c.46.75.83,1.42,1.28,2.05,1.09,1.53,2.22,2.97,4.05,3.97,1.71.94,3.2,2.24,4.68,3.48,2.26,1.88,3.68,2.22,6.96,1.98,1.62-.12,3.18-.08,4.32-1.13,1.32.58,2.95.7,3.58,1.97-1.22,2.66-1.72,5.19-.67,8.07.88,2.4,1.99,5.04,1.27,7.55-.9,3.14-.35,6.25-.6,9.36-.03.44.19.89.38,1.67-.39.82-.77,2.06-1.52,3.1-.8,1.11-1.93,2.03-2.61,2.72-.37,2.44-.22,4.62-1.09,6.38-.97,1.94.21,4.1-1.7,6,.85.43,1.52.78,2.19,1.12-.12.14-.23.27-.35.41,1.63.3,3.26.61,4.97.92.85,1.28,2.31,1.86,3.99,2.43,1.76.6,3.25.57,4.56-.05,3.18.91,6.25.28,9.33.58,3.91,4.2,5.08,9.61,7.28,15.39-.08,2.41,1.04,5.55.76,8.8-.1,1.13.67,2.31,1.02,3.48.47,1.56,1.21,3.09.79,4.72,1.73,2.52,2.32,5.63,4.81,7.06,3.12,7.44,5.21,14.84,11.79,19.8,1.8.45,3.38.84,5.09,1.27-.38,3.24,1.24,5.66,3.02,7.99,1.84,2.4,3.01,4.93,2.85,7.93-.12,2.19-.07,4.39-.05,6.59.01,1.55-1.18,2.94-.69,4.54.19.62.38,1.25.66,2.14-.69.79-1.52,1.75-2.36,2.72-.33.38-.92.74-.94,1.13-.09,1.87-1.69,2.79-2.81,4.05-1.54,1.73-3.53,3.33-3.22,5.85,1.22,1.24,2.67,1.62,4.37,1.54,1.32-.07,2.65-.08,3.96.02,2.59.21,4.95-.64,7.39-1.18.29-.06.67-.15.82-.35,1.43-1.82,3.6-3.31,3.34-5.49-.91-1.39-1.59-2.43-2.33-3.57.56-.58.96-.99,1.42-1.47.94.44,1.8.84,2.96,1.39-.42-2.14-.82-4.03-2.03-6.24,0-.47,0-1.46.02-2.45,0-.68-.29-1.25-.56-1.88-.72-1.74-1.11-3.59-1.46-5.46-.65-3.52-.61-7.03-.49-10.55.07-2.1.49-4.19.85-6.28.05-.3.35-.41.1-.88-.52-.96-.32-1.95.11-3.03.46-1.15.28-2.51.4-3.98,1.98-.79,4.09-1.64,6.62-2.66-.34,1.63.39,2.97-.76,4.21-.22.23,0,.78-.04,1.17-.22,2.41-.26,4.86-.76,7.23-.4,1.93-.72,3.93-1.41,5.76-.4,1.06-.44,2.05-.55,2.92,1.57,2.25,3.06,4.4,4.58,6.54.67.94,1.5,1.81,1.62,2.99.16,1.54.06,3.14.51,4.6.45,1.45.61,2.65-.13,4.1-.49.96-.16,2.2-.7,3.33-.56,1.18-.27,2.7-.82,3.89-.78,1.72-.54,3.43-.62,4.99-1.18,1.06-2.27,2.03-3.43,3.06.77,2.3-1.06,3.7-2.19,5.15-1.74,2.23-2.59,4.5-2.36,7.27l2.97.02c.16.43.3.78.41,1.09.9.28,1.76.74,2.64.77,2.12.09,4.31.34,6.33-.53,1.75-.76,3.53-1.5,5.16-2.44,2.18-1.25,2.93-3.38,3.62-5.5.83-2.52.82-2.63-1.23-4.83v-2.51c.27-.23.51-.44.78-.68.13.03.33.02.42.11.59.51,1.15,1.04,2.08,1.89-.04-.95.13-1.54-.12-1.87-1.64-2.11-2.06-4.66-2.86-7.01-.71-2.12-1.09-4.39-1.59-6.6-.27-1.21-.5-2.43-.63-3.65-.13-1.14-.22-2.24-.52-3.38-.31-1.17-.81-2.76.54-3.91-.26-1.88.76-3.48,1.32-5.19.55-1.7.67-3.49,1.34-5.19.32-.8-.02-1.79.1-2.68.09-.73.54-1.42.62-2.15.09-.87.36-1.63.65-2.46,1.35-3.91,2.35-7.92,3.54-11.88.79-2.62,1.32-5.48,3.82-7.79,1.03.09,2.41-.27,3.91.5,1.23.63,2.83.02,4.39.49,1.86.56,4.18.49,6.11.03,3.05-.72,6.11-.51,9.05-.22,4.32.43,5.82.7,10.04-.02,1.06-.18,2.35-.3,3.25.08,1.91.81,3.64.79,5.44-.06,4.25.1,7.96-2,12.12-2.42,1.4-.14,2.73-1.25,3.98-2.05,4.18-2.69,8.3-5.47,12.49-8.15.81-.52,1.82-.81,2.97-1.3.64,1.51,1.29,2.74,1.67,4.04.56,1.9,1.44,3.65,2.38,5.4.95,1.77,1.69,3.61,1.6,5.7-.07,1.61.08,3.32.66,4.82.59,1.54.06,3.2.65,4.54,1.16,2.65-.81,5.09-.14,7.63-.99,2.03-1.5,4.2-2.54,6.24-.98,1.91-1.87,3.89-2.22,6.07-.29,1.87-1.73,3.19-3.84,4.06-.28.71-.62,1.58-1.13,2.88-2.09,1.49-4.56,3.27-7.31,5.23.73.38,1.22.63,1.69.88,0,.21,0,.41,0,.61,4.9,1.64,9.87.88,15.11.22.38-.36,1.03-.9,1.6-1.5.94-.99,1.35-2.13,1.11-3.44-.14-.75.08-2.71.43-3.27.15-.24.46-.4.88-.74.79.63,1.58,1.26,2.46,1.95.19-.58.4-1.16.58-1.76.14-.45.37-.93.32-1.36-.13-1.03-.56-2.04-.57-3.05,0-.91.3-1.86.65-2.74.86-2.17.44-4.44.73-6.64.34-2.59,1.29-5.08,2.11-7.59.85-2.58,1.83-5.12,2.51-7.74.57-2.2,1.36-4.37,1.44-6.67.04-1.1,1.01-1.99,1.41-3.06.43-1.15.57-2.21.55-3.22-3.71-5.71-5.53-11.7-5.12-18.32,1.03,0,1.99.01,3.23.02.46.83,1.09,1.8,1.56,2.82.94,2.06,2.36,3.89,3.36,5.93.59,1.19-.47,2.65.99,3.52.23,2.11.46,4.23.69,6.33,1.14,2.27,2.29,4.54,3.78,7.5,0,1.17-.02,3.15-.03,5.08,2.22,2.59,4.01,5.3,5.02,8.39.06.17.24.32.27.49.52,2.65.87,10.85.58,13.53-.03.28-.11.55-.22.81-.36.86-.88,1.69-1.07,2.58-.19.87.05,1.8-.08,2.69-.22,1.5-.54,3-1.96,4.14v2.3c-1.03,1.13-2.1,2.2-3.03,3.37-.84,1.05-1.53,2.2-2.29,3.31,2.92,2.64,6.64,2.11,10.24,2.05.69-1.09,2.01-.21,2.95-.8,1.68-1.05,4.05-1.31,4.45-3.72.2-1.48.25-3.02-.85-4.55-.56-.78-.25-2.09-.33-3.06Z" fill="#55565b" fill-rule="evenodd"/>
  <g id="Goat">
    <path d="M650.75,195.32c.27.58.44,1.25.51,2,.27-.5.44-1.03.51-1.6,1.64-4.24,2.31-4.11,2.03.4.45.07.84-.07,1.18-.4.55-1.02,1-2.08,1.35-3.2.67,2.13.61,4.27-.17,6.41.06.13.11.27.17.4.69-.68,1.25-1.49,1.69-2.4-.06,2.43-.8,4.57-2.2,6.41.17.41.4.48.68.2,3.26-4.02,3.49-3.75.68.8-.9.67-1.8,1.34-2.7,2,1.24-.13,2.48-.27,3.71-.4-1.01.93-2.13,1.53-3.38,1.8-.98.26-1.09.6-.34,1-1.79.59-1.79,1.06,0,1.4-1.1.48-2.01.88-2.7,1.2.9.27,1.8.53,2.7.8-1.45.28-2.91.48-4.39.6.6.68,1.27,1.21,2.03,1.6-1.03.3-2.05.23-3.04-.2-.32.19-.32.46,0,.8-.35.52-.75.52-1.18,0-.2.6-.03,1,.51,1.2-.04.44-.27.7-.68.8-.66-.3-1.27-.71-1.86-1.2-.08,2.03-.31,4.03-.68,6.01-.44-.96-.78-.96-1.01,0-.83,7.12-1.84,14.19-3.04,21.23-.23,3.2-.23,6.41,0,9.61,1.03,3.36,2.61,6.3,4.73,8.81.6,9.21,1.16,18.42,1.69,27.64,1.52,2.59,1.01,4.19-1.52,4.81-.48.74-.87,1.54-1.18,2.4,0,1.01.17,2.02.51,3,.02.69-.21,1.22-.68,1.6-2.6,1.17-5.24,1.5-7.94,1-.23-.53-.23-1.07,0-1.6,1.14-2.57,2.38-5.11,3.71-7.61,1.84-9.49.71-18.44-3.38-26.84-1.65-2.09-3.17-4.29-4.56-6.61-.64-.12-1.09.21-1.35,1,.86,1.02,1.14,2.22.84,3.61-.54,1.15-.99,2.36-1.35,3.61-1.11,6.28-2.57,12.43-4.39,18.43-.11,1.47-.23,2.94-.34,4.41-.4.37-.85.64-1.35.8-.89-.63-1.68-.5-2.36.4-.11,1.34-.23,2.67-.34,4.01-9.71,2.88-10.84.35-3.38-7.61,3.35-6.69,4.81-13.9,4.39-21.63-.35-1.76-.97-3.36-1.86-4.81-.41,1.1-1.09,1.57-2.03,1.4-.27-1.23-.44-2.5-.51-3.81-1.47-1.91-2.93-3.78-4.39-5.61-3.34,1.7-6.78,3.04-10.3,4.01-7.96-.57-15.85-1.77-23.64-3.61-.19,8.15-.36,16.3-.51,24.43.83,5.01,1.89,9.95,3.21,14.82-.2,2.01-.93,2.41-2.2,1.2-.95,1.6-1.11,3.33-.51,5.21.06.88-.17,1.61-.68,2.2-2.18.98-4.43,1.59-6.75,1.8v-2h-1.69c1.31-3.23,2.71-6.43,4.22-9.61,1.26-6.58.36-12.72-2.7-18.43.25-5.6-.81-10.81-3.21-15.62-.02-.22-.13-.35-.34-.4-.3.33-.41.73-.34,1.2-1.04,5.16-1.88,10.36-2.53,15.62-.24,6.03-.12,12.04.34,18.03-.17.2-.34.4-.51.6-1.74-.77-2.64-.04-2.7,2.2.66,1.64.43,3.04-.68,4.21-1.77.58-3.57.91-5.4,1-1.28.25-2.3-.22-3.04-1.4,1.34-3.33,3.09-6.33,5.23-9.01.74-1.63,1.2-3.37,1.35-5.21.38-4.59.16-9.13-.68-13.62.02-6.2-.88-12.21-2.7-18.03-.91-.67-1.86-1.27-2.87-1.8-1.28-2.19-2.68-4.26-4.22-6.21-.54-1.15-.99-2.36-1.35-3.61-.5-2.93-.95-5.87-1.35-8.81-2.17-4.47-4.42-8.88-6.75-13.22-1.31-3.78-2.89-7.39-4.73-10.82-.68-1.34-1.58-2.41-2.7-3.2-1.56.95-3.19,1.62-4.9,2,.58,4.02-.1,8.02-2.03,12.02-.44-1.56-.78-1.43-1.01.4-.44.39-.89.79-1.35,1.2-.11-.2-.23-.4-.34-.6.59-1.18.92-2.45,1.01-3.81.22-.24.33-.57.34-1-.31-.93-.65-1.8-1.01-2.6-.16-1.51-.72-2.78-1.69-3.81-1.65.48-3.33.62-5.07.4-1.21-1.17-2.39-2.3-3.55-3.4.03-1.49-.03-2.96-.17-4.41.13-.68.3-1.35.51-2,2.32-4.78,4.86-9.39,7.6-13.82-1.93-1.22-3.67-2.75-5.23-4.61-.17-.65-.22-1.32-.17-2,.85.1,1.64.44,2.36,1,1.46.2,2.92.27,4.39.2.07-3.16,1.42-5.16,4.05-6.01,3.49-5.67,8.22-8.08,14.18-7.21,6.1-.99,11.33,1.01,15.7,6.01,1.07,1.74,1.97,3.61,2.7,5.61.26.91.2,1.78-.17,2.6-.51.2-.9,0-1.18-.6-1.84-4.06-4.6-6.87-8.27-8.41-.11.13-.23.27-.34.4,1.52,2.68,2.25,5.61,2.2,8.81-.14.18-.31.32-.51.4-1.06-1.99-2.13-3.99-3.21-6.01-2.45-2.65-5.32-3.65-8.61-3-.43,1.25-.43,2.52,0,3.81,1.54.82,2.83,2.02,3.88,3.61,3.85,7.11,8.52,13.31,14.02,18.63,1.21.61,2.45,1.15,3.71,1.6,6.94-.69,13.8-.16,20.6,1.6,3.27.27,6.53.27,9.79,0,5.36-1.45,10.76-2.65,16.21-3.61,5.62-.62,11.25-.89,16.89-.8,5.57,2.83,10.63,6.57,15.2,11.22,2.54.4,4.62-.6,6.25-3,1.94-3.36,3.46-6.96,4.56-10.82Z" fill="#7d7e80" fill-rule="evenodd"/>
  </g>
  <g id="Pig">
    <path d="M663.38,241.21c-.08-.19-.37-.37-.55-.35-.59.08-.53,2.22-2.44,2.55.41-1.34.47-2.78-.05-4.03-.42-1.02-1.25-1.71-2.11-1.83-1.01-.15-1.97.3-2.56,1.22-.84,1.3-.64,3.15.42,4.19l.98.96c-.84.22-1.63-.07-2.36-.55-1.85-3.24-4.19-5.94-6.97-8.12-5.9-4.62-13.54-7.06-20.6-7.86-3.08-.35-6.09-.52-9.19-.39-5.32.22-10.57.97-15.74,2.45-10.18,2.91-19.28,8.9-26.83,17.2l-1.87,2.15c-2.77,3.18-6.67,8.74-7.98,12.96l-2.21.65c-3.02,1.09-4.71,4.06-5.54,7.49-.48,2-1.27,4.09-2.25,5.83-.07.13-.1.43-.05.56.14.38.89.31,1.51-.07,1.05-.65,1.97-1.44,2.88-2.34l2.45-2.45.36,4.48c.13,1.58.01,3-.57,4.43-.7,1.73-1.44,3.39-2.42,4.92-.36.56-.69.76-1.34.68-.22-.03-.62.19-.73.38-.13.22-.17.65-.04.89l.97,1.78c.78,1.24,1.84,2.19,3.11,2.64.6.21,1.16.12,1.7-.26l3.96-2.86c.12-.08.33-.11.43-.07.35.14-.11,1.08-.84,1.69-.15.12-.27.41-.24.58.03.13.27.35.4.35,4.56.19,8.83-.87,12.34-4.34.92-.91,1.7-1.92,2.5-2.96.38-.49.79-.75,1.38-.82,1.03-.11,1.67-1.28,2.73-1.19.22,1.67.4,3.28.24,4.93-.1,1-.32,1.96-.1,2.96.22,1.02.21,2.01-.03,3.02-.43,1.85-.89,3.65-1.63,5.37l-.74,1.11c-.53.96-.93,1.91-1.31,2.98-.06.17.17.47.34.5,1.35.2,2.65.17,3.98-.09.58-.12,1.04-.52,1.24-1.16l.77-2.43.34.49c.08.12.32.28.46.27.58-.05.82-1.47.81-2.5-.03-5.2,1.94-6.21,2.75-8.23l1.09-2.72,1.63-3.13,1.36,2.87,1.33,3.02c.34.76.69,1.46,1.18,2.11.32.43.57.91.72,1.45.55,1.97.8,4.76.09,6.62l-1.3,3.38c-.05.13-.03.44.03.55s.29.22.43.24c1.33.18,2.61.15,3.9-.25,1.34-.42,1.18-2.24,1.38-3.1l.21-.91.59.43c.11.09.44.03.54-.07.5-.54.06-2.54-.17-3.72l-.8-4.05c-.11-.55-.24-1.14-.16-1.72.52-3.97.91-7.85,1.09-11.9l1.44-.25c1.01-.17,2.04-.21,3.07-.03l4.64.78c3.18.54,6.87.52,10-.6.31,1.58.73,3.11,1.31,4.61.49,1.26.72,2.53.54,3.93-.22,1.66-.58,3.27-1.31,4.72l-2.78,5.51c-.97,1.01-1.69,2.19-2.14,3.6-.09.23.02.64.28.69,1.44.23,2.91.28,4.34-.15,1-.3,1.27-2.1,2-2.98.3.29.5.45.78.44.6-.03.95-1.17,1.09-2.08.15-.92.41-1.71.88-2.47.73-1.18,1.49-2.28,2.36-3.32l2.2-2.61c.91-1.09,1.38-2.39,1.18-3.94l-.19-1.48c-.14-1.12.2-2.3,1.02-2.98l2.49-2.07s.12-.13.14-.1l.08.16c1.11,2.2,2.44,4.17,3.99,5.98l1.8,2.1c.39.46.74.99.88,1.66.38,1.77.61,3.53.75,5.36,0,1.63-.12,3.17-.41,4.75-.72,1.26-1.22,2.58-1.51,4.06,0,.18.03.46.09.56.29.42,2.78.29,3.9.05.74-.16,1.27-.72,1.39-1.6l.27-2.05.46.42c.11.1.42.19.54.11.52-.35.38-2.03.17-3.12-.33-1.74-.37-3.5-.08-5.27l.86-5.25c.18-1.12.2-2.19-.2-3.24-.93-2.42-.66-5.3.57-7.55,2.56-4.66,4.13-9.83,4.56-15.34.38-3.91,0-7.81-1.19-11.49-.01-.07.07-.23.13-.25.71-.24,1.38-.69,2-1.11l1.49,1.58c.09.09.41.02.48-.09.08-.11.21-.43.15-.57l-.73-1.62,1.18-.36c1.55-.62,2.72-2.66,2.14-3.98ZM658.57,242.84l-1.2-1.13c-.33-.31-.51-.81-.39-1.25.11-.42.45-.8.9-.79.95.02,1.3,1.9.68,3.17Z" fill="#bcbdbf"/>
  </g>
  <g id="Dog">
    <path d="M95.87,262.84c-.73.61-1.38,1.25-2.01,2.04,2.45,6.8-.32,13.88-4.37,19.44-2.42,3.32-5.2,6.05-8.26,8.81l3.98.38c2.03.19,3.97.14,5.99-.21,2.83-.49,5.85-.4,7.94,1.7,1.52,1.53,2.3,3.62,2.53,5.8.21,1.95-2.54,1.63-4.2,1.79l-2.69.25-5.68-.26h-10.48s-16.27.19-16.27.19c-.93.01-1.71-.42-2.38-.94-4.4.63-9.9,1.15-13.5-1.51-4.36,1.2-8.73,1.71-13.2,1.34-1.61-.2-3.04-.57-4.54-1.24-5.04-.42-9.73-2.63-13.49-6.19-7.55-7.16-10.01-18.71-6.09-28.56,1.65-4.15,4.28-7.75,7.85-10.21s7.81-3.26,11.81-1.89c.43.15.79.7.84,1.04.05.43-.3,1.08-.75,1.21l-1.66.48c-3.65,1.05-6.88,3.01-9.21,6.16-4.33,5.85-4.8,13.82-1.36,20.27.93,1.74,2.02,3.21,3.49,4.52,0,0,3,3.17,9.82,4.06,3.49.46,8.02.02,9.93-3.3-.79-3.2-1.41-6.27-1.5-9.56-.26-9.03,3.53-18.34,7.76-26.12,5.31-9.76,12.54-19.08,19.35-27.77l7.95-10.15c3.06-3.9,5.71-7.97,8.01-12.4,1.94-3.73,4.06-7.14,6.72-10.34,2.1-2.53,3.82-5.13,5.59-7.94,3.03-4.84,6.26-9.4,9.62-13.99,3.23-4.41,7.28-8.99,11.71-12.01l2.72-3.4c1.47-1.39,3.13-2.27,5.14-2.45,1.47-.13,2.99-.07,4.44.31l6.23,1.61c1.98.51,3.69,1.64,4.97,3.24l1.96,2.47c.97,1.23,1.59,2.38,1.16,4.03-.21.81,0,1.74.69,2.19l2.59,1.66,4.66,2.48,1.95.74c.93.57,1.23,1.51,1.01,2.59s-1.11,1.84-1.46,2.85l-1.24,3.56c-.61,1.35-1.54,2.41-2.9,2.93-.41,1.49-1.53,2.49-2.96,2.85-1.27.27-2.55.21-3.87-.06-1.4.64-2.86.52-4.01-.59-1.24-.15-2.49-.18-3.69.27-.92.34-1.77,1.26-1.96,2.29-.39,2.13-.89,4.1-1.69,6.09-.6,1.49-.99,3-1.28,4.6l-.46,2.55c-.2.29-.52.65-.46,1.1l.51,3.51c.36,2.51.74,4.91,1.6,7.28.42,1.41.72,2.78.74,4.27l-.37.05c-.06,0-.11.13-.15.24.16,1.45.19,2.75-.04,4.11l-.23.23c-.05.05-.12-.02-.29-.18,0,0-.13.04-.19.05.01,1.36-.05,2.54-.73,3.65l-.27-.33c-.09-.11-.14-.09-.19.1-1.39,5.56-4.86,11.21-7.89,16.05l-1.72,8.01-1.9,8.06-2.66,12.22c-1.04,4.8-1.67,9.48-2.29,14.36-.39,3.12-.54,6.19.19,9.21.31,1.28,1.14,1.87,2.35,1.84,1.87-.05,3.49,1,4.2,2.78.79,1.98,1.71,5.09.01,5.25l-2.81.27c-2.5.24-4.94.35-7.42-.13-3.36-.65-3.4-3.79-3.9-6.88l-.88-5.46c-.11-.66-.49-.89-.97-1.23-.9-.65-.98-2.06-.73-3.1l.57-2.39c.4-4.24.59-8.36.49-12.65l-.31-12.55-5.49,4.61Z" fill="#343632"/>
  </g>
  <g id="Cat">
    <path d="M106.55,236.73c-.04-2.62-.73-5.08-1.34-7.57,2.2,2.94,3.81,6.3,5.31,9.75-.38-1.36-.92-2.62-1.51-3.86-.71-1.49-1.49-2.93-2.28-4.37-.25-.46-.54-.87-.86-1.26-.16-.2-.48-.41-.27-.72.21-.32.36-.26.75.1-.09-.19-.18-.34-.23-.5-.06-.21-.12-.48.22-.35.14.05.31.02.34-.09.03-.12-.16-.02-.23-.1-.12-.13-.02-.24.04-.33.51-.79.79-1.71,1.19-2.56.28-.6.24-1.14-.12-1.69-.55-.87-1.15-1.69-1.65-2.61-.61-1.13-.63-2.43-.76-3.69-.07-.73-.27-1.39-.59-2-.11-.21-.32-.4-.12-.68.01-.02.14-.1-.03-.11-.5-.03-.54-.13-.29-.67.5-1.08,1.18-1.99,1.96-2.79.39-.4.81-.74,1.3-1.18-1.58.97-2.63,2.41-3.54,4.04.1-.83.47-1.53.73-2.29-.43.46-.59,1.12-.86,1.69-.19.41-.13.32-.46.1-1.09-.72-1.93-1.88-3.15-2.35-.33-.13-.64-.33-.96-.51-1.22-.71-1.61-1.65-1.38-3.24.18-1.25.6-2.41.9-3.61.08-.31.25-.62.12-1.03-.56.39-.9,1.03-1.46,1.54-.08-.74.18-1.34.22-1.96.02-.38.25-.88-.03-1.08-.27-.2-.59.21-.84.45-1.03.99-1.98,2.08-2.92,3.19-1.83,2.18-3.84,4.04-6.22,5.37-.59.33-1.23.71-1.72,1.24-.98,1.06-2.01,2.09-2.8,3.33-.43.67-.76,1.53-1.07,2.36-.38,1-.71,2.02-1.03,3.05-.62,2.04-1.03,4.15-1.46,6.25-.45,2.2-1.16,4.22-2.45,5.95-.77,1.03-1.28,2.28-1.78,3.51-.77,1.89-2.1,2.57-3.76,2.65-.94.05-1.91-.09-2.82.14-1.02.25-2.06.34-3.07.65.04.13.23.1.21.26-.02.13-.14.11-.23.12-.29.06-.58.16-.87.18-.79.05-1.36.64-1.98,1.09-.06.05-.12.1-.19.13-1.67.54-2.92,2-4.59,2.73.28.16.45-.13.67.04.04.03-.02.1-.05.12-1.6,1.16-2.65,2.94-3.8,4.61-1.19,1.72-2.13,3.64-2.94,5.64-1.68,4.15-2.75,8.52-3.55,13-.11.63-.22,1.27-.35,1.9-.24,1.23.05,2.49-.21,3.73-.19.91-.24,1.85-.38,2.96.14-.36.21-.54.28-.73-.05,2.6-.25,5.18-.23,7.77.11-.06.08-.28.21-.27v4.22c.15.03,0-.29.2-.35-.02,1.91-.09,3.78-1.15,5.35-.92,1.37-2.22,1.89-3.63,2.08-3.31.44-6.42-.3-9.21-2.47-2.92-2.27-4.33-5.55-4.5-9.63-.18-4.28,1.28-7.77,3.59-10.92,1.83-2.5,3.86-4.79,5.57-7.41,1.82-2.77,3.36-5.71,3.78-9.27.09-.77.11-1.55.16-2.33,0-.08.06-.25-.1-.21-.05.01-.07.14-.14.29-.08-.98-.13-1.9-.27-2.8-.09-.62-.14-1.31-.43-1.8-.64-1.07-.92-2.44-1.74-3.33-.93-1.01-1.89-2.06-3.04-2.71-.9-.51-1.89-1.09-2.89-1.02-1.16.08-2.36-.13-3.5.42.1.16.31-.03.38.22-.8.25-1.55.62-2.32.98-1.12.53-1.45,1.86-2.37,2.76.33,0,.37-.31.62-.27-.54.75-.9,1.59-1.24,2.45-.17.43-.51.85-.14,1.37.05.07,0,.25-.02.38-.11.8-.18,1.64.06,2.38.53,1.61,1.26,3.08,2.7,3.8,1.2.6,2.44-.37,2.42-1.91,0-.56-.08-1.12-.15-1.68-.07-.53-.03-1.04.08-1.55.21-.91.63-1.65,1.47-1.84,1.07-.24,1.99.14,2.66,1.15.9,1.34.99,2.9.74,4.51-.35,2.29-1.34,4.21-2.64,5.91-1.44,1.89-2.96,3.69-4.41,5.57-2.44,3.16-4.53,6.59-5.48,10.78-1.5,6.64-.57,12.79,2.98,18.29,1.97,3.05,4.64,5.03,7.71,6.3,2.6,1.08,5.29,1.62,8.04,1.88,2.45.23,4.89.61,7.34.8,2.42.19,4.83.46,7.25.59,7.38.39,14.77.17,22.15.12,1.61-.01,3.22-.17,4.83-.24.65-.03.85-.58.99-1.12.28-1.05.18-2.1-.23-3.09-.83-2.03-2.57-3.15-4.49-2.94-.77.08-1.54.25-2.3.39-.18.03-.36.08-.54-.01,0-.03.01-.06.02-.06.23-.09.45-.21.68-.26.26-.06.12-.3.18-.41.19-.36.22-.34,1.16-.45-.02-.25-.28-.27-.34-.5.06-.22.26-.05.37-.17-.07-.09-.14-.18-.21-.26.01-.02.02-.06.04-.06.28,0,.55,0,.83,0,.05-.29-.24-.34-.21-.6.2-.23.38.17.59.06.04-.21-.29-.23-.16-.51.19-.04.39-.03.63.08,0-.29-.27-.47-.19-.81.4.25.61-.05.63-.44.02-.51.25.03.32-.14-.08-.17-.16-.35-.26-.55.22-.16.55.18.65-.15.07-.24-.26-.45-.21-.77.2,0,.32.17.52.29.04-.33-.28-.47-.22-.8.22.01.38.21.72.42-.4-.55-.31-1.03-.31-1.54.15.14.28.25.43.38.11-.3-.16-.42-.17-.66.18-.16.23.24.39.14-.03-.29-.19-.55-.15-.85.18-.06.21.24.38.22-.04-.25-.08-.47-.11-.7.2-.08.19.2.34.2,0-.21-.13-.47.12-.66.51,1.29.66,2.68.93,4.03.5,2.48.95,4.97,1.42,7.46.39,2.07,1.5,3.58,2.81,4.93.27.28.64.31.99.33,1.79.14,3.59.04,5.38-.01.38,0,.78-.06,1.15-.17,1.07-.31,1.58-1.45,1.3-2.86-.37-1.85-1.42-2.89-3.03-2.89-.91,0-1.45-.5-1.76-1.45-.48-1.48-.57-3.04-.62-4.59-.14-3.77-.06-7.54.14-11.3.18-3.31.51-6.59,1.51-9.72.25-.77.61-1.49.96-2.2.36-.73.77-1.43,1.17-2.14.76-1.35,1.53-2.69,2.27-4.05.11-.2.24-.39.25-.66,0-.16-.02-.36.26-.44.18-.05.35-.55.35-.93,0-.19.02-.19.27-.26.02,0,.06.05.05,0-.16-.75.61-1.04.61-1.76,0-.36.33-.72.54-1.07.18-.3.04-.66.16-.97.05-.14-.09-.51.29-.28.1.06.16-.33.15-.51-.03-.64.2-1.27.4-1.74.25-.57.06-1.18.27-1.55.28-.5-.07-1.1.34-1.49.05-.05.03-.25,0-.38-.16-1-.07-1.98.08-2.97.04-.24-.03-.53-.12-.75-.47-1.15-.62-2.41-.86-3.61-.28-1.38-.84-2.64-1.06-3.99-.16-.98-.73-1.8-.66-2.83,0-.04-.01-.09-.03-.12-.49-.93-.33-2.09-.77-3.05-.11-.24-.13-.54-.14-.82-.05-1.13.6-1.83,1.57-1.72.96.11,1.9.35,2.86.38.9.03,1.74-.09,2.4-.9.25-.31.3-.08.38.19.66,2.28,1.3,4.56,1.53,6.96Z" fill="#55565b"/>
    <path d="M108.46,237.81c-.61-2.46-1.24-4.91-2.44-7.1.84,2.35,1.66,4.71,2.44,7.1Z" fill="#55565b"/>
  </g>
  <path id="Rabbit" d="M84.98,262.45c2.61-2.39,2.71-7.19,1.25-9.32-1.58-2.31-2.88-3.66-4.3-4.47h0c-1-.57-2.07-.87-3.34-1.05-.88-1.36-1.36-3.27-.84-5.94,0,0,1.55-3.11,1.5-6.97-.05-3.86-3.33-8-4.08-6.72-.32.54-.86,2.56-1.37,5.05-1.18-3.43-4.75-6.27-5.18-4.96-.47,1.41-.47,11.36.78,15.66.81,2.8-.26,6.82-1.11,9.3-.05.1-.1.2-.14.3-1.46,3.32-1.71,6.99-2.27,7.86-1.11,1.74-6.17,7.87-8.92,10.66-2.33,2.36-7.09,9-7.41,12.22,0,0-5.61-.47-7.2,4.44-1.53,4.73,2.81,7.92,6.69,8.57.28.05.47.3.45.57-.03.43-.17,1.1-.61,1.83-.76,1.27.49,3.06,3.05,3.98l17.86-.05c.72.26,2.53-.05,2.91-.7.76-1.26.24-1.55-.72-2.91-1.39-1.97-5.48-.47-5.48-.47,0,0,7.01-3.37,8.1-6.38s-1.53-5.79-2.02-8.11,1.07-1.73,1.61-.61c.53,1.11,1.12,3.92,2.81,3.75,1.69-.17,2.94-3.91,2.07-5.75-.88-1.83-1.98-5.54-1.75-6.7s.47-3.82-.33-6.79,5.04-3.59,8.01-6.31Z" fill="#7d7e80"/>
  <g id="Ginea_Pig">
    <path d="M63.76,302.47c.06.34-.04.64-.14.61-.15-.05-.25-.29-.54-.43-.45-.21-.89-.38-1.36-.5l-1.1-.29-1.09-.34c-.16-.05-.27-.2-.31-.37l-1.45.46c-.09.03-.16,0-.23-.08l-.35.14.93.47c.67.34,1.33.96,1.4,1.71,0,.04-.01.11-.03.14-.08.14-.45-.31-.86-.45.04.33.08.67-.08.79-.12.09-.25-.23-.54-.42-.27-.18-.55-.3-.85-.43.03.29,0,.56-.26.73-.84-1.34-2.63-1.31-3.74-1.96-.36-.21-.53-.58-.38-.97s.15-.98-.19-1.29c-1.19-1.07-1.66-1.84-2.08-3.4l-.06.42c-.19-.29-.25-.54-.32-.84-.19-.79-.22-1.58-.16-2.38l-.21.39c-.06-1.37.12-2.69.43-4.01.26-1.09.59-2.11,1.15-3.1l-.36.21c.34-.81.79-1.51,1.29-2.21l1.72-2.42c1.04-1.46,2.16-2.82,3.36-4.14l1.39-1.53c-.19,0-.31,0-.43-.09.5-.42.92-.82,1.23-1.37-.2.06-.33.13-.57.08.59-.8,1.06-1.59,1.48-2.47.32-.66.68-1.25,1.16-1.83-.16.02-.26.05-.41.03.37-.51.75-.93,1.2-1.35l1.38-1.29c-.47-.8-.47-1.67.27-2.28.67-.54,1.54-.75,2.4-.61.34.05.62.24.91.42.66-.16,1.3-.2,1.97-.12l-.47-.43c.38-.09.69.03,1.02.14.47.16.87.38,1.3.63l-.17-.6s.15-.02.21.02c.41.26.64.61.87,1.05l.13-.38c.09-.26.38.39.33.98,1.58,1.3,3.02,2.34,4.02,4.16.15.27.24.54.25.85-.11.27-.24.51-.42.73-.21.76-.43,1.49-1.22,1.62-.39.51-.93.82-1.58.76-.6-.05-1.15.16-1.58.57-.53.51-.8,1.14-.76,1.89s.15,1.42.33,2.12c-.09.05-.16.01-.28-.07l.08,1.53c-.08.04-.16,0-.25-.11-.08,1.1-.35,2.15-.85,3.16.03.13.1.28.19.37l1.05,1.08c.47.55.67,1.23.61,1.95-.05.52-.19,1-.52,1.41-.09.12-.27.29-.43.19-.14-.08-.06-.34-.03-.49-.11.06-.28.14-.39.1-.32-.12.02-.61-.06-.83l-.22-.66c-.03-.09-.12-.18-.22-.23l-1.11-.55c.33.46.62.89.73,1.43.35,1.61-.71,2.79-1.11,2.62-.06-.02-.11-.16-.1-.23l.11-.55c-.19.09-.31.14-.43.08s-.16-.25-.12-.38c.1-.3.08-.56-.02-.84-.07-.2-.11-.41-.32-.54l-.62,1.92c-.24.75-.49,1.47-.78,2.19.12.91.15,1.8-.29,2.66l-.06-.32c-.18.55-.39,1.09-.68,1.58-.06-.07-.12-.12-.07-.07-.48.99-1.1,1.84-1.87,2.57l-.04-.11s-.59.62-.93.83l-.07-.06.07-.09s-.07-.03-.05-.02l-.75.63,1.69.44c.52.14,1.02.3,1.43.64.71.6.87,1.47.53,1.24l-.46-.31s-.06.01-.06.01c.07.28.1.61-.02.67-.03.02-.12-.01-.15-.05-.24-.27-.6-.47-1-.55Z" fill="#bcbdbf"/>
  </g>
  <g>
    <path d="M144.59,126.03c.66,0,1.16-.27,1.49-.82.33-.55.58-1.67.75-3.37h1.49v25.94h-1.49c-.17-1.6-.42-2.57-.75-2.92-.33-.35-.83-.52-1.49-.52h-64.85v-1.8c1.57-.2,2.55-.52,2.92-.97s.56-1.02.56-1.72v-69.87c0-.7-.19-1.27-.56-1.72s-1.35-.77-2.92-.97v-1.8h25.59v1.8c-1.57.2-2.55.52-2.92.97s-.56,1.03-.56,1.72v56.08h42.74Z" fill="#fff"/>
    <path d="M216.51,69.95c0-.7-.19-1.27-.56-1.72s-1.35-.77-2.92-.97v-1.8h25.59v1.8c-1.57.2-2.55.52-2.92.97s-.56,1.03-.56,1.72v40.18c0,6.6-.89,12.14-2.67,16.64-1.78,4.5-4.22,8.1-7.33,10.8-3.11,2.7-6.75,4.57-10.93,5.62-4.18,1.05-8.63,1.57-13.35,1.57s-9.17-.52-13.35-1.57c-4.18-1.05-7.83-2.92-10.93-5.62-3.11-2.7-5.55-6.3-7.33-10.8-1.78-4.5-2.67-10.05-2.67-16.64v-40.18c0-.7-.19-1.27-.56-1.72s-1.35-.77-2.92-.97v-1.8h25.59v1.8c-1.57.2-2.55.52-2.92.97s-.56,1.03-.56,1.72v40.18c0,5.8,1.37,9.95,4.1,12.44,2.73,2.5,6.58,3.75,11.55,3.75s8.82-1.25,11.55-3.75c2.73-2.5,4.1-6.65,4.1-12.44v-40.18Z" fill="#fff"/>
    <path d="M262.23,69.95c0-.7-.19-1.27-.56-1.72s-1.35-.77-2.92-.97v-1.8h47.33c3.4,0,6.5.4,9.32,1.2,2.81.8,5.26,2.02,7.33,3.67,2.07,1.65,3.68,3.8,4.85,6.45,1.16,2.65,1.74,5.82,1.74,9.52,0,4.5-1.12,8.12-3.35,10.87-2.24,2.75-5.09,4.57-8.57,5.47v.3c4.22,1.4,7.68,3.55,10.37,6.45,2.69,2.9,4.04,7.15,4.04,12.74,0,3-.48,5.85-1.43,8.55-.95,2.7-2.44,5.05-4.47,7.05-2.03,2-4.64,3.6-7.83,4.8-3.19,1.2-6.98,1.8-11.37,1.8h-47.95v-1.8c1.57-.2,2.55-.52,2.92-.97s.56-1.02.56-1.72v-69.87ZM297.76,95.14c2.65,0,4.85-.07,6.58-.22s3.11-.47,4.1-.97c.99-.5,1.7-1.2,2.11-2.1.41-.9.62-2.1.62-3.6s-.21-2.7-.62-3.6c-.42-.9-1.12-1.6-2.11-2.1-.99-.5-2.36-.82-4.1-.97s-3.93-.22-6.58-.22h-16.9v13.79h16.9ZM301.98,128.43c4.47,0,7.62-.68,9.44-2.02,1.82-1.35,2.73-3.67,2.73-6.97s-.91-5.62-2.73-6.97c-1.82-1.35-4.97-2.02-9.44-2.02h-21.12v17.99h21.12Z" fill="#fff"/>
    <path d="M351.92,69.95c0-.7-.19-1.27-.56-1.72s-1.35-.77-2.92-.97v-1.8h47.33c3.4,0,6.5.4,9.32,1.2,2.81.8,5.26,2.02,7.33,3.67,2.07,1.65,3.68,3.8,4.85,6.45,1.16,2.65,1.74,5.82,1.74,9.52,0,4.5-1.12,8.12-3.35,10.87-2.24,2.75-5.09,4.57-8.57,5.47v.3c4.22,1.4,7.68,3.55,10.37,6.45,2.69,2.9,4.04,7.15,4.04,12.74,0,3-.48,5.85-1.43,8.55-.95,2.7-2.44,5.05-4.47,7.05-2.03,2-4.64,3.6-7.83,4.8-3.19,1.2-6.98,1.8-11.37,1.8h-47.95v-1.8c1.57-.2,2.55-.52,2.92-.97s.56-1.02.56-1.72v-69.87ZM387.45,95.14c2.65,0,4.85-.07,6.58-.22s3.11-.47,4.1-.97c.99-.5,1.7-1.2,2.11-2.1.41-.9.62-2.1.62-3.6s-.21-2.7-.62-3.6c-.42-.9-1.12-1.6-2.11-2.1-.99-.5-2.36-.82-4.1-.97s-3.93-.22-6.58-.22h-16.9v13.79h16.9ZM391.68,128.43c4.47,0,7.62-.68,9.44-2.02,1.82-1.35,2.73-3.67,2.73-6.97s-.91-5.62-2.73-6.97c-1.82-1.35-4.97-2.02-9.44-2.02h-21.12v17.99h21.12Z" fill="#fff"/>
    <path d="M487.58,115.53c-.17-1-.52-1.82-1.06-2.47-.54-.65-1.43-.97-2.67-.97h-23.11v13.94h39.88c.66,0,1.16-.27,1.49-.82.33-.55.58-1.77.75-3.67h1.49v25.64h-1.49c-.17-1.3-.41-2.1-.75-2.4-.33-.3-.83-.45-1.49-.45h-61.99v-1.8c1.57-.2,2.55-.52,2.92-.97s.56-1.02.56-1.72v-69.87c0-.7-.19-1.27-.56-1.72s-1.35-.77-2.92-.97v-1.8h61.99c.66,0,1.16-.27,1.49-.82.33-.55.58-1.67.75-3.37h1.49v26.09h-1.49c-.17-1.7-.41-2.82-.75-3.37-.33-.55-.83-.82-1.49-.82h-39.88v12.44h23.11c1.24,0,2.13-.32,2.67-.97.54-.65.89-1.47,1.06-2.47h1.49v23.39h-1.49Z" fill="#fff"/>
    <path d="M524.97,69.95c0-.7-.19-1.27-.56-1.72s-1.35-.77-2.92-.97v-1.8h29.94v1.8c-1.41.1-2.34.33-2.8.67-.46.35-.68.78-.68,1.27,0,.2.54,1.1,1.62,2.7,1.07,1.6,2.48,3.6,4.22,6,1.74,2.4,3.71,5.07,5.9,8.02,2.19,2.95,4.41,5.9,6.65,8.85,2.24,2.95,4.39,5.75,6.46,8.4,2.07,2.65,3.85,4.92,5.34,6.82v-40.03c0-1.7-.87-2.6-2.61-2.7v-1.8h22.73v1.8c-1.57.2-2.55.52-2.92.97s-.56,1.03-.56,1.72v69.87c0,.7.19,1.27.56,1.72s1.35.78,2.92.97v1.8h-23.6v-1.8c1.16,0,1.93-.15,2.3-.45.37-.3.56-.7.56-1.2,0-.3-.12-.67-.37-1.12s-.79-1.22-1.62-2.32c-.83-1.1-2.05-2.67-3.66-4.72-1.61-2.05-3.75-4.8-6.4-8.25-2.65-3.45-5.92-7.75-9.81-12.89-3.89-5.15-8.57-11.42-14.04-18.82v47.08c0,.7.19,1.27.56,1.72s1.35.78,2.92.97v1.8h-23.6v-1.8c1.57-.2,2.55-.52,2.92-.97s.56-1.02.56-1.72v-69.87Z" fill="#fff"/>
  </g>
  <g>
    <path d="M42.2,25.31h-3.86c0-3.72-1.62-5.58-4.87-5.58-1.64,0-2.91.44-3.82,1.32-.91.88-1.36,2.14-1.36,3.78,0,1.2.27,2.2.81,3.01.54.81,1.25,1.42,2.13,1.84.88.42,1.84.81,2.88,1.14,1.04.34,2.09.7,3.14,1.1s2.02.89,2.9,1.47c.88.59,1.59,1.42,2.13,2.5.54,1.08.81,2.4.81,3.95,0,1.73-.29,3.23-.88,4.5-.59,1.27-1.37,2.24-2.35,2.9-.98.66-2.01,1.14-3.1,1.45-1.08.31-2.22.46-3.42.46-3.51,0-5.97-.86-7.38-2.57-1.41-1.71-2.11-4.34-2.11-7.88h3.86c0,.88.02,1.59.07,2.13.04.54.17,1.18.37,1.91.2.73.51,1.3.92,1.71.41.41.99.77,1.76,1.08.76.31,1.68.46,2.77.46,1.55,0,2.85-.51,3.89-1.54,1.04-1.02,1.56-2.36,1.56-4,0-1.2-.27-2.21-.81-3.03-.54-.82-1.25-1.45-2.13-1.89-.88-.44-1.84-.83-2.9-1.16-1.05-.34-2.1-.72-3.14-1.14-1.04-.42-2-.93-2.88-1.51-.88-.59-1.59-1.43-2.13-2.52-.54-1.1-.81-2.42-.81-3.97,0-.67.06-1.35.18-2.02.12-.67.37-1.43.77-2.26s.91-1.56,1.56-2.17c.64-.61,1.54-1.13,2.68-1.56,1.14-.42,2.47-.64,4-.64,5.77,0,8.69,2.91,8.78,8.74Z" fill="#fff"/>
    <path d="M63.49,32.16h-3.69c0-1.32-.3-2.46-.9-3.42-.6-.97-1.54-1.45-2.83-1.45-.64,0-1.21.11-1.69.33-.48.22-.97.65-1.45,1.3-.48.64-.85,1.65-1.1,3.01s-.37,3.07-.37,5.12c0,.88.01,1.6.04,2.17.03.57.12,1.35.26,2.35.15,1,.37,1.79.66,2.39.29.6.74,1.13,1.34,1.6.6.47,1.32.7,2.17.7.99,0,1.79-.33,2.39-.99.6-.66.99-1.39,1.19-2.2.19-.8.28-1.7.28-2.7h3.69c0,1.4-.22,2.73-.66,3.97-.44,1.24-1.27,2.36-2.48,3.34-1.21.98-2.74,1.47-4.59,1.47-2.84,0-4.91-.99-6.21-2.96-1.3-1.98-1.95-5.01-1.95-9.11,0-1.32.06-2.52.18-3.6.12-1.08.35-2.21.7-3.38.35-1.17.83-2.16,1.43-2.96.6-.8,1.41-1.46,2.44-1.98,1.02-.51,2.24-.77,3.64-.77,1.23,0,2.31.18,3.25.55.94.37,1.66.83,2.17,1.38.51.56.94,1.2,1.27,1.93.34.73.56,1.41.66,2.04.1.63.15,1.25.15,1.87Z" fill="#fff"/>
    <path d="M76.4,49.15c-5.65,0-8.47-4.13-8.47-12.38s2.82-12.38,8.47-12.38,8.47,4.13,8.47,12.38-2.83,12.38-8.47,12.38ZM76.31,46.26c1.79,0,3.01-.84,3.69-2.52.67-1.68,1.01-4,1.01-6.96,0-1.41-.07-2.63-.2-3.67-.13-1.04-.36-2.03-.68-2.96-.32-.94-.8-1.65-1.45-2.13-.64-.48-1.43-.72-2.37-.72s-1.67.25-2.28.75c-.61.5-1.08,1.21-1.38,2.13s-.53,1.91-.66,2.96-.2,2.27-.2,3.64.06,2.63.18,3.67c.12,1.04.34,2.03.66,2.96.32.94.79,1.65,1.4,2.13.61.48,1.38.72,2.28.72Z" fill="#fff"/>
    <path d="M91.41,25.01v-6.85h3.69v6.85h4.08v2.9h-4.08v15.1c0,.97.17,1.65.5,2.04.34.4.97.59,1.91.59.29,0,.83-.04,1.62-.13v3.03c-.97.18-1.96.26-2.99.26-1.82,0-3.06-.37-3.73-1.1-.67-.73-1.01-1.92-1.01-3.56v-16.24h-3.42v-2.9h3.42Z" fill="#fff"/>
    <path d="M104.54,25.01v-6.85h3.69v6.85h4.08v2.9h-4.08v15.1c0,.97.17,1.65.5,2.04.34.4.97.59,1.91.59.29,0,.83-.04,1.62-.13v3.03c-.97.18-1.96.26-2.99.26-1.82,0-3.06-.37-3.73-1.1-.67-.73-1.01-1.92-1.01-3.56v-16.24h-3.42v-2.9h3.42Z" fill="#fff"/>
  </g>
  <g>
    <path d="M183.9,214.96l-10.69-43.86h5.65l8.6,37.66h.12l8.6-37.66h5.65l-11.06,43.86h-6.88Z" fill="#fff"/>
    <path d="M229.18,199.11h-17.32c0,1.15,0,2.06.03,2.73.02.68.08,1.6.18,2.76.1,1.17.3,2.1.58,2.79.29.7.65,1.41,1.08,2.15s1.02,1.29,1.78,1.66c.76.37,1.65.55,2.67.55,1.51,0,2.72-.5,3.62-1.51.9-1,1.45-2,1.66-2.98.2-.98.31-2.03.31-3.13h5.16c0,1.02-.16,2.13-.49,3.32-.33,1.19-.87,2.45-1.63,3.78-.76,1.33-1.92,2.43-3.47,3.29-1.56.86-3.38,1.29-5.47,1.29-3.97,0-6.87-1.38-8.69-4.15-1.82-2.76-2.73-7.01-2.73-12.75,0-1.84.08-3.52.25-5.04.16-1.51.49-3.09.98-4.73.49-1.64,1.16-3.02,2-4.15.84-1.13,1.98-2.05,3.41-2.76,1.43-.72,3.13-1.07,5.1-1.07s3.59.34,5.01,1.01c1.41.68,2.49,1.5,3.23,2.49s1.33,2.23,1.78,3.75c.45,1.52.73,2.91.83,4.18.1,1.27.15,2.74.15,4.42v2.09ZM212.04,195.05h11.73v-1.78c0-2.21-.44-4.11-1.32-5.68-.88-1.58-2.35-2.37-4.39-2.37-1.27,0-2.33.34-3.19,1.01-.86.68-1.47,1.54-1.84,2.58-.37,1.04-.63,1.97-.77,2.76-.14.8-.21,1.55-.21,2.24v1.23Z" fill="#fff"/>
    <path d="M238.82,182.03v-9.58h5.16v9.58h5.71v4.05h-5.71v21.13c0,1.35.23,2.3.71,2.86.47.55,1.36.83,2.67.83.41,0,1.17-.06,2.27-.18v4.24c-1.35.25-2.74.37-4.18.37-2.54,0-4.28-.51-5.22-1.54-.94-1.02-1.41-2.68-1.41-4.98v-22.73h-4.79v-4.05h4.79Z" fill="#fff"/>
    <path d="M277.28,199.11h-17.32c0,1.15,0,2.06.03,2.73.02.68.08,1.6.18,2.76.1,1.17.3,2.1.58,2.79.29.7.65,1.41,1.08,2.15s1.02,1.29,1.78,1.66c.76.37,1.65.55,2.67.55,1.51,0,2.72-.5,3.62-1.51.9-1,1.45-2,1.66-2.98.2-.98.31-2.03.31-3.13h5.16c0,1.02-.16,2.13-.49,3.32-.33,1.19-.87,2.45-1.63,3.78-.76,1.33-1.92,2.43-3.47,3.29-1.56.86-3.38,1.29-5.47,1.29-3.97,0-6.87-1.38-8.69-4.15-1.82-2.76-2.73-7.01-2.73-12.75,0-1.84.08-3.52.25-5.04.16-1.51.49-3.09.98-4.73.49-1.64,1.16-3.02,2-4.15.84-1.13,1.98-2.05,3.41-2.76,1.43-.72,3.13-1.07,5.1-1.07s3.59.34,5.01,1.01c1.41.68,2.49,1.5,3.23,2.49s1.33,2.23,1.78,3.75c.45,1.52.73,2.91.83,4.18.1,1.27.15,2.74.15,4.42v2.09ZM260.14,195.05h11.73v-1.78c0-2.21-.44-4.11-1.32-5.68-.88-1.58-2.35-2.37-4.39-2.37-1.27,0-2.33.34-3.19,1.01-.86.68-1.47,1.54-1.84,2.58-.37,1.04-.63,1.97-.77,2.76-.14.8-.21,1.55-.21,2.24v1.23Z" fill="#fff"/>
    <path d="M285.38,214.96v-32.93h5.16v4.91h.12c1.8-3.85,4.18-5.77,7.13-5.77,1.02,0,1.78.12,2.27.37v5.04c-1.31-.16-2.23-.25-2.76-.25-1.56,0-3.07.69-4.55,2.06-1.47,1.37-2.21,3.29-2.21,5.74v20.83h-5.16Z" fill="#fff"/>
    <path d="M306.33,176.99v-5.9h5.16v5.9h-5.16ZM306.33,214.96v-32.93h5.16v32.93h-5.16Z" fill="#fff"/>
    <path d="M321.01,214.96v-32.93h4.91v3.87h.12c.65-1.47,1.73-2.63,3.22-3.47,1.49-.84,3.08-1.26,4.76-1.26s3.04.26,4.21.77c1.17.51,2.03,1.09,2.58,1.72.55.64.98,1.52,1.29,2.64.31,1.13.48,2.02.52,2.67.04.66.06,1.54.06,2.64v23.34h-5.16v-22.73c0-.86-.04-1.58-.12-2.15-.08-.57-.27-1.26-.55-2.06-.29-.8-.78-1.4-1.47-1.81-.7-.41-1.6-.61-2.7-.61-1.64,0-3.13.56-4.48,1.69-1.35,1.13-2.03,2.77-2.03,4.95v22.73h-5.16Z" fill="#fff"/>
    <path d="M356.28,191.98h-5.16c0-3.77.87-6.51,2.61-8.23,1.74-1.72,4.56-2.58,8.45-2.58,1.92,0,3.55.24,4.88.71,1.33.47,2.32,1,2.98,1.6.65.59,1.16,1.39,1.51,2.4.35,1,.54,1.8.58,2.4.04.59.06,1.38.06,2.37v18.37c0,.61.02,1.06.06,1.35.04.29.18.57.43.86.25.29.61.43,1.11.43.53,0,.94-.1,1.23-.31v3.69c-1.23.2-2.23.31-3.01.31-.66,0-1.18-.03-1.57-.09s-.85-.21-1.38-.43c-.53-.22-.94-.66-1.23-1.29-.29-.63-.45-1.44-.49-2.43h-.12c-.82,1.43-1.96,2.58-3.41,3.44-1.45.86-2.96,1.29-4.52,1.29-2.99,0-5.23-.84-6.73-2.52-1.5-1.68-2.24-4.03-2.24-7.06,0-4.79,2.07-7.82,6.2-9.09l6.94-2.09c1.23-.37,2.11-.79,2.64-1.26s.85-.93.95-1.38c.1-.45.15-1.23.15-2.33,0-1.56-.45-2.75-1.35-3.59-.9-.84-2.21-1.26-3.93-1.26-3.77,0-5.65,2.15-5.65,6.45v.31ZM367.03,205.5v-8.48c-.74.78-2.24,1.54-4.51,2.27s-3.7,1.27-4.27,1.6c-1.68,1.07-2.52,2.81-2.52,5.22,0,3.77,1.56,5.65,4.67,5.65,1.72,0,3.26-.62,4.61-1.87,1.35-1.25,2.03-2.71,2.03-4.39Z" fill="#fff"/>
    <path d="M381.65,214.96v-32.93h5.16v4.91h.12c1.8-3.85,4.18-5.77,7.13-5.77,1.02,0,1.78.12,2.27.37v5.04c-1.31-.16-2.23-.25-2.76-.25-1.56,0-3.07.69-4.55,2.06s-2.21,3.29-2.21,5.74v20.83h-5.16Z" fill="#fff"/>
    <path d="M409.23,215.63l-9.71-33.6h5.65l6.51,26.42h.12l5.77-26.42h5.65l-9.52,35.14c-.37,1.39-.72,2.5-1.04,3.32-.33.82-.81,1.69-1.44,2.61-.64.92-1.47,1.6-2.52,2.03-1.04.43-2.3.65-3.78.65-.78,0-2.03-.06-3.75-.18v-4.05c.74.12,1.74.18,3.01.18,1.97,0,3.32-1.07,4.05-3.19l.98-2.89Z" fill="#fff"/>
    <path d="M269.6,242.28h-5.41c0-5.2-2.27-7.8-6.82-7.8-2.29,0-4.08.61-5.34,1.84-1.27,1.23-1.9,2.99-1.9,5.28,0,1.68.38,3.08,1.14,4.21.76,1.13,1.75,1.99,2.98,2.58,1.23.59,2.57,1.13,4.02,1.6,1.45.47,2.92.98,4.39,1.54,1.47.55,2.83,1.24,4.05,2.06,1.23.82,2.22,1.99,2.98,3.5.76,1.52,1.14,3.36,1.14,5.53,0,2.42-.41,4.52-1.23,6.3-.82,1.78-1.91,3.13-3.29,4.05-1.37.92-2.82,1.6-4.33,2.03-1.52.43-3.11.65-4.79.65-4.91,0-8.35-1.2-10.32-3.59-1.97-2.4-2.95-6.07-2.95-11.03h5.41c0,1.23.03,2.22.09,2.98.06.76.23,1.65.52,2.67.29,1.02.72,1.82,1.29,2.4.57.57,1.39,1.08,2.46,1.51,1.06.43,2.35.65,3.87.65,2.17,0,3.98-.72,5.44-2.15,1.45-1.43,2.18-3.3,2.18-5.59,0-1.68-.38-3.09-1.14-4.24-.76-1.15-1.75-2.03-2.98-2.64s-2.58-1.16-4.05-1.63c-1.47-.47-2.94-1-4.39-1.6-1.45-.59-2.8-1.3-4.02-2.12-1.23-.82-2.22-2-2.98-3.53-.76-1.54-1.14-3.39-1.14-5.56,0-.94.08-1.88.25-2.83.16-.94.52-2,1.08-3.16.55-1.17,1.28-2.18,2.18-3.04.9-.86,2.15-1.59,3.75-2.18,1.6-.59,3.46-.89,5.59-.89,8.07,0,12.16,4.08,12.29,12.23Z" fill="#fff"/>
    <path d="M300.19,258.93h-17.32c0,1.15,0,2.06.03,2.73.02.68.08,1.6.18,2.76.1,1.17.3,2.1.58,2.79.29.7.65,1.41,1.08,2.15s1.02,1.29,1.78,1.66c.76.37,1.65.55,2.67.55,1.51,0,2.72-.5,3.62-1.51.9-1,1.45-2,1.66-2.98.2-.98.31-2.03.31-3.13h5.16c0,1.02-.16,2.13-.49,3.32-.33,1.19-.87,2.45-1.63,3.78-.76,1.33-1.92,2.43-3.47,3.29-1.56.86-3.38,1.29-5.47,1.29-3.97,0-6.87-1.38-8.69-4.15-1.82-2.76-2.73-7.01-2.73-12.75,0-1.84.08-3.52.25-5.04.16-1.51.49-3.09.98-4.73.49-1.64,1.16-3.02,2-4.15.84-1.13,1.98-2.05,3.41-2.76,1.43-.72,3.13-1.07,5.1-1.07s3.59.34,5.01,1.01c1.41.68,2.49,1.5,3.23,2.49s1.33,2.23,1.78,3.75c.45,1.52.73,2.91.83,4.18.1,1.27.15,2.74.15,4.42v2.09ZM283.05,254.88h11.73v-1.78c0-2.21-.44-4.11-1.32-5.68-.88-1.58-2.35-2.37-4.39-2.37-1.27,0-2.33.34-3.19,1.01-.86.68-1.47,1.54-1.84,2.58-.37,1.04-.63,1.97-.77,2.76-.14.8-.21,1.55-.21,2.24v1.23Z" fill="#fff"/>
    <path d="M308.3,274.78v-32.93h5.16v4.91h.12c1.8-3.85,4.18-5.77,7.13-5.77,1.02,0,1.78.12,2.27.37v5.04c-1.31-.16-2.23-.25-2.76-.25-1.56,0-3.07.69-4.55,2.06-1.47,1.37-2.21,3.29-2.21,5.74v20.83h-5.16Z" fill="#fff"/>
    <path d="M335.08,274.78l-8.91-32.93h5.65l6.14,26.42h.12l6.14-26.42h5.65l-8.91,32.93h-5.9Z" fill="#fff"/>
    <path d="M356.64,236.82v-5.9h5.16v5.9h-5.16ZM356.64,274.78v-32.93h5.16v32.93h-5.16Z" fill="#fff"/>
    <path d="M392.15,251.87h-5.16c0-1.84-.42-3.44-1.26-4.79-.84-1.35-2.16-2.03-3.96-2.03-.9,0-1.69.15-2.37.46-.68.31-1.35.91-2.03,1.81-.68.9-1.19,2.3-1.54,4.21-.35,1.9-.52,4.29-.52,7.16,0,1.23.02,2.24.06,3.04.04.8.16,1.89.37,3.29.2,1.39.51,2.51.92,3.35.41.84,1.03,1.59,1.87,2.24.84.66,1.85.98,3.04.98,1.39,0,2.51-.46,3.35-1.38.84-.92,1.39-1.94,1.66-3.07.27-1.13.4-2.39.4-3.78h5.16c0,1.97-.31,3.82-.92,5.56-.61,1.74-1.77,3.3-3.47,4.67-1.7,1.37-3.84,2.06-6.42,2.06-3.97,0-6.87-1.38-8.69-4.15-1.82-2.76-2.73-7.01-2.73-12.75,0-1.84.08-3.52.25-5.04.16-1.51.49-3.09.98-4.73.49-1.64,1.16-3.02,2-4.15.84-1.13,1.98-2.05,3.41-2.76,1.43-.72,3.13-1.07,5.1-1.07,1.72,0,3.23.26,4.55.77,1.31.51,2.32,1.16,3.04,1.93.72.78,1.31,1.68,1.78,2.7.47,1.02.78,1.98.92,2.86.14.88.21,1.75.21,2.61Z" fill="#fff"/>
    <path d="M421.58,258.93h-17.32c0,1.15,0,2.06.03,2.73.02.68.08,1.6.18,2.76.1,1.17.3,2.1.58,2.79.29.7.64,1.41,1.07,2.15s1.02,1.29,1.78,1.66c.76.37,1.65.55,2.67.55,1.51,0,2.72-.5,3.62-1.51.9-1,1.45-2,1.66-2.98.2-.98.31-2.03.31-3.13h5.16c0,1.02-.16,2.13-.49,3.32-.33,1.19-.87,2.45-1.63,3.78-.76,1.33-1.92,2.43-3.47,3.29-1.56.86-3.38,1.29-5.47,1.29-3.97,0-6.87-1.38-8.69-4.15-1.82-2.76-2.73-7.01-2.73-12.75,0-1.84.08-3.52.25-5.04.16-1.51.49-3.09.98-4.73.49-1.64,1.16-3.02,2-4.15.84-1.13,1.98-2.05,3.41-2.76,1.43-.72,3.13-1.07,5.1-1.07s3.59.34,5.01,1.01c1.41.68,2.49,1.5,3.23,2.49.74.98,1.33,2.23,1.78,3.75.45,1.52.73,2.91.83,4.18.1,1.27.15,2.74.15,4.42v2.09ZM404.44,254.88h11.73v-1.78c0-2.21-.44-4.11-1.32-5.68-.88-1.58-2.35-2.37-4.39-2.37-1.27,0-2.33.34-3.19,1.01s-1.47,1.54-1.84,2.58c-.37,1.04-.63,1.97-.77,2.76-.14.8-.22,1.55-.22,2.24v1.23Z" fill="#fff"/>
  </g>
</svg>